<?xml version="1.0" standalone="no"?>
<!DOCTYPE svg PUBLIC "-//W3C//DTD SVG 20010904//EN"
 "http://www.w3.org/TR/2001/REC-SVG-20010904/DTD/svg10.dtd">
<svg version="1.0" xmlns="http://www.w3.org/2000/svg"
 width="386.000000pt" height="309.000000pt" viewBox="0 0 386.000000 309.000000"
 preserveAspectRatio="xMidYMid meet">
<metadata>
Created by potrace 1.16, written by Peter Selinger 2001-2019
</metadata>
<g transform="translate(0.000000,309.000000) scale(0.100000,-0.100000)"
fill="#000000" stroke="none">
<path d="M1685 2740 c-473 -96 -838 -458 -941 -933 -24 -111 -29 -314 -10
-429 43 -265 169 -504 359 -685 467 -444 1213 -440 1666 9 240 237 361 527
361 864 0 581 -412 1072 -989 1179 -115 21 -330 19 -446 -5z m385 -175 c227
-34 419 -134 581 -301 128 -132 206 -270 257 -452 24 -88 27 -113 26 -257 -1
-130 -5 -174 -22 -237 -102 -374 -376 -648 -750 -750 -116 -32 -363 -31 -482
1 -357 96 -626 352 -734 697 -148 477 87 999 548 1215 187 87 375 115 576 84z"/>
<path d="M1864 2461 c-45 -28 -48 -36 -54 -135 l-5 -90 -50 -12 c-176 -45
-345 -185 -429 -354 -133 -270 -85 -577 124 -790 79 -80 167 -133 277 -169
l83 -26 0 -85 c0 -65 4 -90 18 -106 24 -31 55 -44 100 -44 76 0 112 55 112
172 0 55 1 58 28 64 122 27 196 62 295 136 75 56 97 89 97 146 0 49 -33 88
-83 97 -48 9 -68 1 -129 -51 -53 -45 -130 -88 -180 -100 l-28 -6 0 451 c0 354
3 451 13 451 26 0 144 -63 189 -101 62 -52 97 -64 143 -49 49 16 75 53 75 107
0 37 -6 50 -40 87 -23 25 -70 63 -105 86 -64 42 -210 100 -251 100 -20 0 -22
6 -26 86 -4 79 -7 87 -35 115 -39 40 -95 48 -139 20z m-54 -906 l0 -445 -37
15 c-70 29 -118 63 -171 119 -174 184 -169 463 12 641 55 54 151 114 184 115
9 0 12 -95 12 -445z"/>
</g>
</svg>
