<?xml version="1.0" standalone="no"?>
<!DOCTYPE svg PUBLIC "-//W3C//DTD SVG 20010904//EN"
 "http://www.w3.org/TR/2001/REC-SVG-20010904/DTD/svg10.dtd">
<svg version="1.0" xmlns="http://www.w3.org/2000/svg"
 width="300.000000pt" height="259.000000pt" viewBox="0 0 300.000000 259.000000"
 preserveAspectRatio="xMidYMid meet">
<metadata>
Created by potrace 1.16, written by Peter Selinger 2001-2019
</metadata>
<g transform="translate(0.000000,259.000000) scale(0.100000,-0.100000)"
fill="#000000" stroke="none">
<path d="M1400 2110 c-120 -25 -257 -125 -313 -228 -31 -57 -57 -150 -57 -204
l0 -38 130 0 130 0 0 33 c0 46 41 127 83 164 145 127 380 14 380 -182 0 -74
-25 -120 -165 -309 -69 -93 -136 -189 -149 -214 -22 -46 -47 -216 -35 -247 4
-12 28 -15 131 -15 l125 0 0 38 c0 86 22 132 159 327 145 207 178 267 189 353
29 225 -94 430 -300 502 -72 25 -234 35 -308 20z"/>
<path d="M1390 495 l0 -135 145 0 145 0 0 135 0 135 -145 0 -145 0 0 -135z"/>
</g>
</svg>
