<?xml version="1.0" encoding="UTF-8" standalone="no"?>
<svg
   xmlns:dc="http://purl.org/dc/elements/1.1/"
   xmlns:cc="http://creativecommons.org/ns#"
   xmlns:rdf="http://www.w3.org/1999/02/22-rdf-syntax-ns#"
   xmlns:svg="http://www.w3.org/2000/svg"
   xmlns="http://www.w3.org/2000/svg"
   xml:space="preserve"
   enable-background="new 0 0 211 141"
   viewBox="0 0 1024 768"
   height="768"
   width="1024"
   y="0px"
   x="0px"
   id="Ebene_1"
   version="1.1"><metadata
     id="metadata152"><rdf:RDF><cc:Work
         rdf:about=""><dc:format>image/svg+xml</dc:format><dc:type
           rdf:resource="http://purl.org/dc/dcmitype/StillImage" /><dc:title></dc:title></cc:Work></rdf:RDF></metadata><defs
     id="defs150" /><radialGradient
     gradientUnits="userSpaceOnUse"
     gradientTransform="matrix(0.89099526,0,0,0.95628842,11.500001,619.56894)"
     r="91.003799"
     cy="81.513603"
     cx="105.5"
     id="SVGID_1_"><stop
       id="stop2"
       style="stop-color:#FFFFFF"
       offset="0.291" /><stop
       id="stop4"
       style="stop-color:#E6E6E6"
       offset="1" /></radialGradient><g
     transform="matrix(5.4468085,0,0,5.4468085,-62.638297,-3415.1489)"
     id="g1035"><rect
       width="188"
       height="140.96881"
       id="rect7"
       x="11.5"
       y="627.03119"
       style="fill:url(#SVGID_1_);stroke-width:0.94382107" /><rect
       x="48.5"
       y="646.69"
       stroke-miterlimit="10"
       width="115"
       height="101"
       id="rect9"
       style="fill:#ffffff;stroke:#010202;stroke-miterlimit:10" /><path
       stroke-miterlimit="10"
       d="M 36.823,646.59"
       id="path11"
       style="fill:none;stroke:#010202;stroke-width:0.5;stroke-miterlimit:10" /><path
       stroke-miterlimit="10"
       d="M 36.823,646.59"
       id="path13"
       style="fill:none;stroke:#010202;stroke-width:1.20000005;stroke-linejoin:round;stroke-miterlimit:10" /><g
       id="g25"
       transform="translate(0,627)"><rect
         x="56.467999"
         y="31.190001"
         stroke-miterlimit="10"
         width="96"
         height="78"
         id="rect15"
         style="fill:none;stroke:#000000;stroke-width:0.75;stroke-miterlimit:10" /><line
         stroke-miterlimit="10"
         x1="56.467999"
         y1="31.190001"
         x2="53.549999"
         y2="28.271999"
         id="line17"
         style="fill:none;stroke:#000000;stroke-width:0.75;stroke-linecap:round;stroke-miterlimit:10" /><line
         stroke-miterlimit="10"
         x1="155.38699"
         y1="112.109"
         x2="152.468"
         y2="109.19"
         id="line19"
         style="fill:none;stroke:#000000;stroke-width:0.75;stroke-linecap:round;stroke-miterlimit:10" /><line
         stroke-miterlimit="10"
         x1="152.468"
         y1="31.190001"
         x2="155.38699"
         y2="28.271999"
         id="line21"
         style="fill:none;stroke:#000000;stroke-width:0.75;stroke-linecap:round;stroke-miterlimit:10" /><line
         stroke-miterlimit="10"
         x1="53.549999"
         y1="112.109"
         x2="56.467999"
         y2="109.19"
         id="line23"
         style="fill:none;stroke:#000000;stroke-width:0.75;stroke-linecap:round;stroke-miterlimit:10" /></g><g
       id="g121"
       transform="translate(0,627)"><rect
         x="57.145"
         y="31.851999"
         width="94.644997"
         height="76.676003"
         id="rect27"
         style="opacity:0.7;fill:#775035" /><line
         stroke-miterlimit="10"
         x1="58.672001"
         y1="31.851999"
         x2="58.672001"
         y2="108.528"
         id="line29"
         style="opacity:0.4;fill:none;stroke:#775035;stroke-miterlimit:10" /><line
         stroke-miterlimit="10"
         x1="60.707001"
         y1="31.851999"
         x2="60.707001"
         y2="108.528"
         id="line31"
         style="opacity:0.4;fill:none;stroke:#775035;stroke-miterlimit:10" /><line
         stroke-miterlimit="10"
         x1="62.743"
         y1="31.851999"
         x2="62.743"
         y2="108.528"
         id="line33"
         style="opacity:0.4;fill:none;stroke:#775035;stroke-miterlimit:10" /><line
         stroke-miterlimit="10"
         x1="64.778"
         y1="31.851999"
         x2="64.778"
         y2="108.528"
         id="line35"
         style="opacity:0.4;fill:none;stroke:#775035;stroke-miterlimit:10" /><line
         stroke-miterlimit="10"
         x1="66.813004"
         y1="31.851999"
         x2="66.813004"
         y2="108.528"
         id="line37"
         style="opacity:0.4;fill:none;stroke:#775035;stroke-miterlimit:10" /><line
         stroke-miterlimit="10"
         x1="68.848999"
         y1="31.851999"
         x2="68.848999"
         y2="108.528"
         id="line39"
         style="opacity:0.4;fill:none;stroke:#775035;stroke-miterlimit:10" /><line
         stroke-miterlimit="10"
         x1="70.884003"
         y1="31.851999"
         x2="70.884003"
         y2="108.528"
         id="line41"
         style="opacity:0.4;fill:none;stroke:#775035;stroke-miterlimit:10" /><line
         stroke-miterlimit="10"
         x1="72.919998"
         y1="31.851999"
         x2="72.919998"
         y2="108.528"
         id="line43"
         style="opacity:0.4;fill:none;stroke:#775035;stroke-miterlimit:10" /><line
         stroke-miterlimit="10"
         x1="74.955002"
         y1="31.851999"
         x2="74.955002"
         y2="108.528"
         id="line45"
         style="opacity:0.4;fill:none;stroke:#775035;stroke-miterlimit:10" /><line
         stroke-miterlimit="10"
         x1="76.989998"
         y1="31.851999"
         x2="76.989998"
         y2="108.528"
         id="line47"
         style="opacity:0.4;fill:none;stroke:#775035;stroke-miterlimit:10" /><line
         stroke-miterlimit="10"
         x1="79.026001"
         y1="31.851999"
         x2="79.026001"
         y2="108.528"
         id="line49"
         style="opacity:0.4;fill:none;stroke:#775035;stroke-miterlimit:10" /><line
         stroke-miterlimit="10"
         x1="81.060997"
         y1="31.851999"
         x2="81.060997"
         y2="108.528"
         id="line51"
         style="opacity:0.4;fill:none;stroke:#775035;stroke-miterlimit:10" /><line
         stroke-miterlimit="10"
         x1="83.096001"
         y1="31.851999"
         x2="83.096001"
         y2="108.528"
         id="line53"
         style="opacity:0.4;fill:none;stroke:#775035;stroke-miterlimit:10" /><line
         stroke-miterlimit="10"
         x1="85.132004"
         y1="31.851999"
         x2="85.132004"
         y2="108.528"
         id="line55"
         style="opacity:0.4;fill:none;stroke:#775035;stroke-miterlimit:10" /><line
         stroke-miterlimit="10"
         x1="87.167"
         y1="31.851999"
         x2="87.167"
         y2="108.528"
         id="line57"
         style="opacity:0.4;fill:none;stroke:#775035;stroke-miterlimit:10" /><line
         stroke-miterlimit="10"
         x1="89.203003"
         y1="31.851999"
         x2="89.203003"
         y2="108.528"
         id="line59"
         style="opacity:0.4;fill:none;stroke:#775035;stroke-miterlimit:10" /><line
         stroke-miterlimit="10"
         x1="91.237999"
         y1="31.851999"
         x2="91.237999"
         y2="108.528"
         id="line61"
         style="opacity:0.4;fill:none;stroke:#775035;stroke-miterlimit:10" /><line
         stroke-miterlimit="10"
         x1="93.273003"
         y1="31.851999"
         x2="93.273003"
         y2="108.528"
         id="line63"
         style="opacity:0.4;fill:none;stroke:#775035;stroke-miterlimit:10" /><line
         stroke-miterlimit="10"
         x1="95.308998"
         y1="31.851999"
         x2="95.308998"
         y2="108.528"
         id="line65"
         style="opacity:0.4;fill:none;stroke:#775035;stroke-miterlimit:10" /><line
         stroke-miterlimit="10"
         x1="97.344002"
         y1="31.851999"
         x2="97.344002"
         y2="108.528"
         id="line67"
         style="opacity:0.4;fill:none;stroke:#775035;stroke-miterlimit:10" /><line
         stroke-miterlimit="10"
         x1="99.379997"
         y1="31.851999"
         x2="99.379997"
         y2="108.528"
         id="line69"
         style="opacity:0.4;fill:none;stroke:#775035;stroke-miterlimit:10" /><line
         stroke-miterlimit="10"
         x1="101.415"
         y1="31.851999"
         x2="101.415"
         y2="108.528"
         id="line71"
         style="opacity:0.4;fill:none;stroke:#775035;stroke-miterlimit:10" /><line
         stroke-miterlimit="10"
         x1="103.45"
         y1="31.851999"
         x2="103.45"
         y2="108.528"
         id="line73"
         style="opacity:0.4;fill:none;stroke:#775035;stroke-miterlimit:10" /><line
         stroke-miterlimit="10"
         x1="105.486"
         y1="31.851999"
         x2="105.486"
         y2="108.528"
         id="line75"
         style="opacity:0.4;fill:none;stroke:#775035;stroke-miterlimit:10" /><line
         stroke-miterlimit="10"
         x1="107.521"
         y1="31.851999"
         x2="107.521"
         y2="108.528"
         id="line77"
         style="opacity:0.4;fill:none;stroke:#775035;stroke-miterlimit:10" /><line
         stroke-miterlimit="10"
         x1="109.556"
         y1="31.851999"
         x2="109.556"
         y2="108.528"
         id="line79"
         style="opacity:0.4;fill:none;stroke:#775035;stroke-miterlimit:10" /><line
         stroke-miterlimit="10"
         x1="111.592"
         y1="31.851999"
         x2="111.592"
         y2="108.528"
         id="line81"
         style="opacity:0.4;fill:none;stroke:#775035;stroke-miterlimit:10" /><line
         stroke-miterlimit="10"
         x1="113.627"
         y1="31.851999"
         x2="113.627"
         y2="108.528"
         id="line83"
         style="opacity:0.4;fill:none;stroke:#775035;stroke-miterlimit:10" /><line
         stroke-miterlimit="10"
         x1="115.663"
         y1="31.851999"
         x2="115.663"
         y2="108.528"
         id="line85"
         style="opacity:0.4;fill:none;stroke:#775035;stroke-miterlimit:10" /><line
         stroke-miterlimit="10"
         x1="117.698"
         y1="31.851999"
         x2="117.698"
         y2="108.528"
         id="line87"
         style="opacity:0.4;fill:none;stroke:#775035;stroke-miterlimit:10" /><line
         stroke-miterlimit="10"
         x1="119.733"
         y1="31.851999"
         x2="119.733"
         y2="108.528"
         id="line89"
         style="opacity:0.4;fill:none;stroke:#775035;stroke-miterlimit:10" /><line
         stroke-miterlimit="10"
         x1="121.769"
         y1="31.851999"
         x2="121.769"
         y2="108.528"
         id="line91"
         style="opacity:0.4;fill:none;stroke:#775035;stroke-miterlimit:10" /><line
         stroke-miterlimit="10"
         x1="123.804"
         y1="31.851999"
         x2="123.804"
         y2="108.528"
         id="line93"
         style="opacity:0.4;fill:none;stroke:#775035;stroke-miterlimit:10" /><line
         stroke-miterlimit="10"
         x1="125.84"
         y1="31.851999"
         x2="125.84"
         y2="108.528"
         id="line95"
         style="opacity:0.4;fill:none;stroke:#775035;stroke-miterlimit:10" /><line
         stroke-miterlimit="10"
         x1="127.875"
         y1="31.851999"
         x2="127.875"
         y2="108.528"
         id="line97"
         style="opacity:0.4;fill:none;stroke:#775035;stroke-miterlimit:10" /><line
         stroke-miterlimit="10"
         x1="129.91"
         y1="31.851999"
         x2="129.91"
         y2="108.528"
         id="line99"
         style="opacity:0.4;fill:none;stroke:#775035;stroke-miterlimit:10" /><line
         stroke-miterlimit="10"
         x1="131.946"
         y1="31.851999"
         x2="131.946"
         y2="108.528"
         id="line101"
         style="opacity:0.4;fill:none;stroke:#775035;stroke-miterlimit:10" /><line
         stroke-miterlimit="10"
         x1="133.981"
         y1="31.851999"
         x2="133.981"
         y2="108.528"
         id="line103"
         style="opacity:0.4;fill:none;stroke:#775035;stroke-miterlimit:10" /><line
         stroke-miterlimit="10"
         x1="136.01601"
         y1="31.851999"
         x2="136.01601"
         y2="108.528"
         id="line105"
         style="opacity:0.4;fill:none;stroke:#775035;stroke-miterlimit:10" /><line
         stroke-miterlimit="10"
         x1="138.052"
         y1="31.851999"
         x2="138.052"
         y2="108.528"
         id="line107"
         style="opacity:0.4;fill:none;stroke:#775035;stroke-miterlimit:10" /><line
         stroke-miterlimit="10"
         x1="140.08701"
         y1="31.851999"
         x2="140.08701"
         y2="108.528"
         id="line109"
         style="opacity:0.4;fill:none;stroke:#775035;stroke-miterlimit:10" /><line
         stroke-miterlimit="10"
         x1="142.123"
         y1="31.851999"
         x2="142.123"
         y2="108.528"
         id="line111"
         style="opacity:0.4;fill:none;stroke:#775035;stroke-miterlimit:10" /><line
         stroke-miterlimit="10"
         x1="144.158"
         y1="31.851999"
         x2="144.158"
         y2="108.528"
         id="line113"
         style="opacity:0.4;fill:none;stroke:#775035;stroke-miterlimit:10" /><line
         stroke-miterlimit="10"
         x1="146.19299"
         y1="31.851999"
         x2="146.19299"
         y2="108.528"
         id="line115"
         style="opacity:0.4;fill:none;stroke:#775035;stroke-miterlimit:10" /><line
         stroke-miterlimit="10"
         x1="148.229"
         y1="31.851999"
         x2="148.229"
         y2="108.528"
         id="line117"
         style="opacity:0.4;fill:none;stroke:#775035;stroke-miterlimit:10" /><line
         stroke-miterlimit="10"
         x1="150.26401"
         y1="31.851999"
         x2="150.26401"
         y2="108.528"
         id="line119"
         style="opacity:0.4;fill:none;stroke:#775035;stroke-miterlimit:10" /></g><g
       id="g127"
       transform="translate(0,627)"><path
         id="SW_16_"
         d="m 57.39,108.219 v -4.938 l 1.198,1.303 2.553,-2.606 2.579,2.606 -2.619,2.469 1.29,1.166 z"
         style="fill:none;stroke:#010202;stroke-width:0.5;stroke-linejoin:round" /><path
         id="SW_15_"
         d="m 151.548,108.264 h -5.001 l 1.303,-1.199 -2.606,-2.554 2.606,-2.58 2.501,2.619 1.198,-1.29 v 5.004 z"
         style="fill:none;stroke:#010202;stroke-width:0.5;stroke-linejoin:round" /><path
         id="SW_14_"
         d="m 151.503,32.116 v 4.915 l -1.198,-1.303 -2.553,2.606 -2.579,-2.606 2.619,-2.458 -1.29,-1.155 h 5.001 z"
         style="fill:none;stroke:#010202;stroke-width:0.5;stroke-linejoin:round" /><path
         id="SW_13_"
         d="m 57.431,32.137 h 5.001 l -1.303,1.183 2.606,2.546 -2.606,2.576 -2.501,-2.621 -1.198,1.288 v -4.972 z"
         style="fill:none;stroke:#010202;stroke-width:0.5;stroke-linejoin:round" /></g><g
       id="g131"
       transform="translate(0,627)"><path
         d="m 97.839,77.997 c 0,-0.109 0,-0.195 0,-0.282 0,-1.964 0.009,-3.928 -0.005,-5.891 -0.004,-0.635 0.244,-1.076 0.794,-1.399 1.399,-0.819 2.783,-1.663 4.174,-2.498 0.057,-0.034 0.111,-0.072 0.193,-0.126 -0.086,-0.053 -0.151,-0.095 -0.218,-0.136 -1.39,-0.835 -2.774,-1.68 -4.172,-2.5 -0.54,-0.316 -0.773,-0.756 -0.77,-1.371 0.01,-1.964 0.004,-3.928 0.004,-5.891 0,-0.088 0,-0.176 0,-0.294 -0.205,0 -0.4,0.004 -0.594,-0.001 -0.312,-0.008 -0.629,0.013 -0.933,-0.039 -0.65,-0.112 -1.045,-0.658 -1.016,-1.345 0.025,-0.581 0.529,-1.085 1.152,-1.149 0.094,-0.01 0.19,-0.016 0.285,-0.016 5.837,-10e-4 11.674,0 17.511,-10e-4 0.408,0 0.783,0.078 1.074,0.392 0.374,0.403 0.474,0.87 0.264,1.374 -0.206,0.495 -0.608,0.756 -1.143,0.782 -0.359,0.017 -0.72,0.004 -1.08,0.004 -0.066,0 -0.132,0 -0.22,0 0,0.107 0,0.194 0,0.28 0,1.957 -0.009,3.914 0.005,5.871 0.005,0.651 -0.245,1.101 -0.811,1.432 -1.395,0.813 -2.772,1.656 -4.157,2.487 -0.057,0.034 -0.111,0.072 -0.189,0.123 0.076,0.05 0.134,0.091 0.195,0.128 1.395,0.839 2.786,1.687 4.19,2.511 0.539,0.317 0.773,0.759 0.77,1.372 -0.008,1.964 -0.003,3.928 -0.003,5.891 0,0.088 0,0.176 0,0.292 0.24,0 0.469,-0.004 0.698,0.001 0.278,0.007 0.56,-0.009 0.831,0.039 0.632,0.113 1.052,0.682 1.014,1.329 -0.035,0.594 -0.529,1.099 -1.142,1.163 -0.101,0.011 -0.203,0.017 -0.305,0.017 -5.83,10e-4 -11.66,0 -17.49,0.002 -0.431,0 -0.825,-0.085 -1.12,-0.427 -0.352,-0.408 -0.438,-0.874 -0.222,-1.364 0.213,-0.483 0.611,-0.736 1.138,-0.758 0.36,-0.015 0.72,-0.003 1.08,-0.003 0.065,0.001 0.132,0.001 0.218,0.001 z m 2.567,-20.377 c -0.006,0.034 -0.013,0.053 -0.013,0.072 -0.001,1.814 -0.003,3.628 0.005,5.443 0,0.071 0.076,0.167 0.142,0.207 1.597,0.964 3.199,1.921 4.796,2.884 0.118,0.071 0.197,0.064 0.311,-0.004 1.592,-0.96 3.186,-1.916 4.782,-2.867 0.121,-0.072 0.16,-0.151 0.159,-0.289 -0.005,-1.746 -0.003,-3.493 -0.003,-5.239 0,-0.066 0,-0.132 0,-0.207 -3.402,0 -6.783,0 -10.179,0 z m 10.164,20.368 c 0.006,-0.034 0.013,-0.053 0.013,-0.072 0.001,-1.814 0.003,-3.629 -0.005,-5.443 0,-0.071 -0.076,-0.167 -0.143,-0.207 -1.597,-0.964 -3.199,-1.92 -4.796,-2.884 -0.118,-0.071 -0.197,-0.064 -0.311,0.004 -1.592,0.96 -3.186,1.916 -4.782,2.868 -0.121,0.072 -0.159,0.151 -0.159,0.289 0.005,1.746 0.003,3.493 0.003,5.239 0,0.066 0,0.132 0,0.207 3.403,-0.001 6.784,-0.001 10.18,-0.001 z"
         id="path129" /></g><path
       d="m 100.373,684.62 c -0.006,0.034 -0.013,0.053 -0.013,0.072 -0.001,1.814 -0.003,3.628 0.005,5.443 0,0.071 0.076,0.167 0.142,0.207 1.597,0.964 3.199,1.921 4.796,2.884 0.118,0.071 0.197,0.064 0.311,-0.004 1.592,-0.96 3.186,-1.916 4.782,-2.867 0.121,-0.072 0.16,-0.151 0.159,-0.289 -0.005,-1.746 -0.003,-3.493 -0.003,-5.239 0,-0.066 0,-0.132 0,-0.207 -3.402,0 -6.783,0 -10.179,0 z m 10.164,20.368 c 0.006,-0.034 0.013,-0.053 0.013,-0.072 0.001,-1.814 0.003,-3.629 -0.005,-5.443 0,-0.071 -0.076,-0.167 -0.143,-0.207 -1.597,-0.964 -3.199,-1.92 -4.796,-2.884 -0.118,-0.071 -0.197,-0.064 -0.311,0.004 -1.592,0.96 -3.186,1.916 -4.782,2.868 -0.121,0.072 -0.159,0.151 -0.159,0.289 0.005,1.746 0.003,3.493 0.003,5.239 0,0.066 0,0.132 0,0.207 3.403,-10e-4 6.784,-10e-4 10.18,-10e-4 z"
       id="path133"
       style="fill:#f2f2f2" /><g
       id="g137"
       transform="translate(0,627)"><path
         stroke-miterlimit="10"
         d="m 66.551,123.61 c 0.16,-0.019 0.235,-0.028 0.31,-0.036 1.76,-0.194 3.521,-0.388 5.281,-0.579 0.28,-0.03 0.535,-0.104 0.72,-0.333 0.347,-0.429 0.272,-0.932 -0.203,-1.359 -3.903,-3.508 -7.806,-7.016 -11.709,-10.524 -0.804,-0.723 -1.606,-1.448 -2.412,-2.168 -0.363,-0.324 -0.785,-0.361 -1.168,-0.107 -0.308,0.204 -0.405,0.505 -0.394,0.864 0.121,4.021 0.239,8.043 0.357,12.064 0.068,2.306 0.136,4.611 0.203,6.917 0.009,0.307 0.073,0.586 0.324,0.792 0.392,0.322 0.886,0.279 1.311,-0.12 1.413,-1.326 2.825,-2.654 4.237,-3.981 0.065,-0.061 0.132,-0.119 0.209,-0.188 0.169,0.358 0.334,0.696 0.49,1.039 0.61,1.339 1.214,2.681 1.828,4.018 0.38,0.827 1.277,1.197 2.083,0.875 0.883,-0.353 1.278,-1.343 0.874,-2.224 -0.721,-1.572 -1.45,-3.14 -2.178,-4.709 -0.036,-0.077 -0.095,-0.141 -0.163,-0.241 z"
         id="path135"
         style="stroke:#ffffff;stroke-width:0.25;stroke-miterlimit:10" /></g><circle
       cx="57.431"
       cy="659.13702"
       r="1.1390001"
       id="circle139"
       style="fill:#e52420" /><circle
       cx="57.389999"
       cy="735.21899"
       r="1.1390001"
       id="circle141"
       style="fill:#e52420" /><circle
       cx="151.50301"
       cy="659.11603"
       r="1.1390001"
       id="circle143"
       style="fill:#e52420" /><circle
       cx="151.548"
       cy="735.26398"
       r="1.1390001"
       id="circle145"
       style="fill:#e52420" /></g></svg>