<?xml version="1.0" encoding="utf-8"?>
<!-- Generator: Adobe Illustrator 17.0.0, SVG Export Plug-In . SVG Version: 6.00 Build 0)  -->
<!DOCTYPE svg PUBLIC "-//W3C//DTD SVG 1.1//EN" "http://www.w3.org/Graphics/SVG/1.1/DTD/svg11.dtd">
<svg version="1.1" id="Ebene_1" xmlns="http://www.w3.org/2000/svg" xmlns:xlink="http://www.w3.org/1999/xlink" x="0px" y="0px"
	 width="211px" height="141px" viewBox="0 0 211 141" enable-background="new 0 0 211 141" xml:space="preserve">
<radialGradient id="SVGID_1_" cx="105.5" cy="81.5406" r="91.0038" gradientTransform="matrix(1 0 0 0.9565 0 -7.4897)" gradientUnits="userSpaceOnUse">
	<stop  offset="0.291" style="stop-color:#FFFFFF"/>
	<stop  offset="1" style="stop-color:#E6E6E6"/>
</radialGradient>
<rect x="0" fill="url(#SVGID_1_)" width="211" height="141"/>
<g>
	<polygon fill="#FFFFFF" stroke="#010202" stroke-linejoin="round" stroke-miterlimit="10" points="36.823,19.743 33.936,16.843
		32.455,18.325 35.287,21.251 35.303,118.833 32.342,121.834 33.873,123.537 36.854,120.743 175.547,120.743 178.528,123.539
		180.06,121.824 177.1,118.832 177.119,21.259 179.955,18.345 178.483,16.842 175.614,19.743 	"/>
	<line fill="none" stroke="#010202" stroke-width="0.5" stroke-miterlimit="10" x1="36.823" y1="19.743" x2="35.287" y2="21.251"/>

		<line fill="none" stroke="#010202" stroke-width="0.5" stroke-miterlimit="10" x1="35.303" y1="118.833" x2="36.854" y2="120.743"/>

		<line fill="none" stroke="#010202" stroke-width="0.5" stroke-miterlimit="10" x1="175.614" y1="19.743" x2="177.119" y2="21.259"/>

		<line fill="none" stroke="#010202" stroke-width="0.5" stroke-miterlimit="10" x1="177.1" y1="118.832" x2="175.547" y2="120.743"/>
</g>
<line fill="none" stroke="#010202" stroke-width="0.75" stroke-miterlimit="10" x1="48.5" y1="19.69" x2="48.5" y2="120.69"/>
<line fill="none" stroke="#010202" stroke-width="0.75" stroke-miterlimit="10" x1="163.5" y1="19.69" x2="163.5" y2="120.69"/>
<path fill="none" stroke="#010202" stroke-width="0.5" stroke-miterlimit="10" d="M36.823,19.59"/>
<path fill="none" stroke="#010202" stroke-width="1.2" stroke-linejoin="round" stroke-miterlimit="10" d="M36.823,19.59"/>
<circle fill="none" stroke="#010202" stroke-width="0.75" stroke-miterlimit="10" cx="171.149" cy="115.362" r="2.462"/>
<g>
	<rect x="56.468" y="31.19" fill="none" stroke="#000000" stroke-width="0.75" stroke-miterlimit="10" width="96" height="78"/>

		<line fill="none" stroke="#000000" stroke-width="0.75" stroke-linecap="round" stroke-miterlimit="10" x1="56.468" y1="31.19" x2="53.55" y2="28.272"/>

		<line fill="none" stroke="#000000" stroke-width="0.75" stroke-linecap="round" stroke-miterlimit="10" x1="155.387" y1="112.109" x2="152.468" y2="109.19"/>

		<line fill="none" stroke="#000000" stroke-width="0.75" stroke-linecap="round" stroke-miterlimit="10" x1="152.468" y1="31.19" x2="155.387" y2="28.272"/>

		<line fill="none" stroke="#000000" stroke-width="0.75" stroke-linecap="round" stroke-miterlimit="10" x1="53.55" y1="112.109" x2="56.468" y2="109.19"/>
</g>
<g>
	<rect x="57.145" y="31.852" opacity="0.7" fill="#775035" width="94.645" height="76.676"/>
	<line opacity="0.4" fill="none" stroke="#775035" stroke-miterlimit="10" x1="58.672" y1="31.852" x2="58.672" y2="108.528"/>
	<line opacity="0.4" fill="none" stroke="#775035" stroke-miterlimit="10" x1="60.707" y1="31.852" x2="60.707" y2="108.528"/>
	<line opacity="0.4" fill="none" stroke="#775035" stroke-miterlimit="10" x1="62.743" y1="31.852" x2="62.743" y2="108.528"/>
	<line opacity="0.4" fill="none" stroke="#775035" stroke-miterlimit="10" x1="64.778" y1="31.852" x2="64.778" y2="108.528"/>
	<line opacity="0.4" fill="none" stroke="#775035" stroke-miterlimit="10" x1="66.813" y1="31.852" x2="66.813" y2="108.528"/>
	<line opacity="0.4" fill="none" stroke="#775035" stroke-miterlimit="10" x1="68.849" y1="31.852" x2="68.849" y2="108.528"/>
	<line opacity="0.4" fill="none" stroke="#775035" stroke-miterlimit="10" x1="70.884" y1="31.852" x2="70.884" y2="108.528"/>
	<line opacity="0.4" fill="none" stroke="#775035" stroke-miterlimit="10" x1="72.92" y1="31.852" x2="72.92" y2="108.528"/>
	<line opacity="0.4" fill="none" stroke="#775035" stroke-miterlimit="10" x1="74.955" y1="31.852" x2="74.955" y2="108.528"/>
	<line opacity="0.4" fill="none" stroke="#775035" stroke-miterlimit="10" x1="76.99" y1="31.852" x2="76.99" y2="108.528"/>
	<line opacity="0.4" fill="none" stroke="#775035" stroke-miterlimit="10" x1="79.026" y1="31.852" x2="79.026" y2="108.528"/>
	<line opacity="0.4" fill="none" stroke="#775035" stroke-miterlimit="10" x1="81.061" y1="31.852" x2="81.061" y2="108.528"/>
	<line opacity="0.4" fill="none" stroke="#775035" stroke-miterlimit="10" x1="83.096" y1="31.852" x2="83.096" y2="108.528"/>
	<line opacity="0.4" fill="none" stroke="#775035" stroke-miterlimit="10" x1="85.132" y1="31.852" x2="85.132" y2="108.528"/>
	<line opacity="0.4" fill="none" stroke="#775035" stroke-miterlimit="10" x1="87.167" y1="31.852" x2="87.167" y2="108.528"/>
	<line opacity="0.4" fill="none" stroke="#775035" stroke-miterlimit="10" x1="89.203" y1="31.852" x2="89.203" y2="108.528"/>
	<line opacity="0.4" fill="none" stroke="#775035" stroke-miterlimit="10" x1="91.238" y1="31.852" x2="91.238" y2="108.528"/>
	<line opacity="0.4" fill="none" stroke="#775035" stroke-miterlimit="10" x1="93.273" y1="31.852" x2="93.273" y2="108.528"/>
	<line opacity="0.4" fill="none" stroke="#775035" stroke-miterlimit="10" x1="95.309" y1="31.852" x2="95.309" y2="108.528"/>
	<line opacity="0.4" fill="none" stroke="#775035" stroke-miterlimit="10" x1="97.344" y1="31.852" x2="97.344" y2="108.528"/>
	<line opacity="0.4" fill="none" stroke="#775035" stroke-miterlimit="10" x1="99.38" y1="31.852" x2="99.38" y2="108.528"/>
	<line opacity="0.4" fill="none" stroke="#775035" stroke-miterlimit="10" x1="101.415" y1="31.852" x2="101.415" y2="108.528"/>
	<line opacity="0.4" fill="none" stroke="#775035" stroke-miterlimit="10" x1="103.45" y1="31.852" x2="103.45" y2="108.528"/>
	<line opacity="0.4" fill="none" stroke="#775035" stroke-miterlimit="10" x1="105.486" y1="31.852" x2="105.486" y2="108.528"/>
	<line opacity="0.4" fill="none" stroke="#775035" stroke-miterlimit="10" x1="107.521" y1="31.852" x2="107.521" y2="108.528"/>
	<line opacity="0.4" fill="none" stroke="#775035" stroke-miterlimit="10" x1="109.556" y1="31.852" x2="109.556" y2="108.528"/>
	<line opacity="0.4" fill="none" stroke="#775035" stroke-miterlimit="10" x1="111.592" y1="31.852" x2="111.592" y2="108.528"/>
	<line opacity="0.4" fill="none" stroke="#775035" stroke-miterlimit="10" x1="113.627" y1="31.852" x2="113.627" y2="108.528"/>
	<line opacity="0.4" fill="none" stroke="#775035" stroke-miterlimit="10" x1="115.663" y1="31.852" x2="115.663" y2="108.528"/>
	<line opacity="0.4" fill="none" stroke="#775035" stroke-miterlimit="10" x1="117.698" y1="31.852" x2="117.698" y2="108.528"/>
	<line opacity="0.4" fill="none" stroke="#775035" stroke-miterlimit="10" x1="119.733" y1="31.852" x2="119.733" y2="108.528"/>
	<line opacity="0.4" fill="none" stroke="#775035" stroke-miterlimit="10" x1="121.769" y1="31.852" x2="121.769" y2="108.528"/>
	<line opacity="0.4" fill="none" stroke="#775035" stroke-miterlimit="10" x1="123.804" y1="31.852" x2="123.804" y2="108.528"/>
	<line opacity="0.4" fill="none" stroke="#775035" stroke-miterlimit="10" x1="125.84" y1="31.852" x2="125.84" y2="108.528"/>
	<line opacity="0.4" fill="none" stroke="#775035" stroke-miterlimit="10" x1="127.875" y1="31.852" x2="127.875" y2="108.528"/>
	<line opacity="0.4" fill="none" stroke="#775035" stroke-miterlimit="10" x1="129.91" y1="31.852" x2="129.91" y2="108.528"/>
	<line opacity="0.4" fill="none" stroke="#775035" stroke-miterlimit="10" x1="131.946" y1="31.852" x2="131.946" y2="108.528"/>
	<line opacity="0.4" fill="none" stroke="#775035" stroke-miterlimit="10" x1="133.981" y1="31.852" x2="133.981" y2="108.528"/>
	<line opacity="0.4" fill="none" stroke="#775035" stroke-miterlimit="10" x1="136.016" y1="31.852" x2="136.016" y2="108.528"/>
	<line opacity="0.4" fill="none" stroke="#775035" stroke-miterlimit="10" x1="138.052" y1="31.852" x2="138.052" y2="108.528"/>
	<line opacity="0.4" fill="none" stroke="#775035" stroke-miterlimit="10" x1="140.087" y1="31.852" x2="140.087" y2="108.528"/>
	<line opacity="0.4" fill="none" stroke="#775035" stroke-miterlimit="10" x1="142.123" y1="31.852" x2="142.123" y2="108.528"/>
	<line opacity="0.4" fill="none" stroke="#775035" stroke-miterlimit="10" x1="144.158" y1="31.852" x2="144.158" y2="108.528"/>
	<line opacity="0.4" fill="none" stroke="#775035" stroke-miterlimit="10" x1="146.193" y1="31.852" x2="146.193" y2="108.528"/>
	<line opacity="0.4" fill="none" stroke="#775035" stroke-miterlimit="10" x1="148.229" y1="31.852" x2="148.229" y2="108.528"/>
	<line opacity="0.4" fill="none" stroke="#775035" stroke-miterlimit="10" x1="150.264" y1="31.852" x2="150.264" y2="108.528"/>
</g>
<g>
	<g>
		<path fill="#232323" d="M100.303,70.929c0.055-0.259,0.158-0.517,0.159-0.776c0.015-3.184,0.016-6.368,0.017-9.553
			c0-0.982,0.505-1.558,1.402-1.58c0.95-0.023,1.625,0.649,1.626,1.632c0.003,2.729-0.003,5.459,0.007,8.188
			c0.001,0.302,0.141,0.632,0.185,0.934c0.132,0.014,0.294-0.063,0.426-0.049c0.083-0.281,0.237-0.562,0.238-0.844
			c0.017-3.559,0.027-7.118-0.003-10.677c-0.005-0.645,0.45-0.998,1.127-1.061c0.418-0.039,0.995,0.203,1.309,0.457
			c0.232,0.187,0.208,0.597,0.209,0.908c0.012,3.907,0.005,7.813,0.014,11.72c0.001,0.296,0.092,0.591,0.141,0.887
			c0.104-0.001,0.428-0.001,0.532-0.002c0.032-0.295,0.091-0.59,0.091-0.884c-0.003-3.131-0.015-6.261-0.024-9.392
			c-0.003-1.072,0.476-1.652,1.381-1.68c0.943-0.029,1.732,0.687,1.733,1.75C110.877,64.923,111,68.936,111,72.95
			c0,0.281,0,0.562,0,0.843c0,0.015,0.065,0.03,0.159,0.045c0.169-0.296,0.319-0.582,0.437-0.89
			c0.285-0.742,0.466-1.501,0.766-2.239c0.153-0.377,0.368-0.748,0.648-1.081c0.465-0.553,1.194-0.644,1.945-0.447
			c0.821,0.215,0.347,0.707,0.283,1.092c-0.74,4.428-1.788,8.807-3.615,13.059c-0.403,0.938-0.854,1.866-1.234,2.809
			c-0.171,0.425-0.449,0.597-1.046,0.593c-3.437-0.025-6.875-0.042-10.312-0.017c-0.775,0.006-0.927-0.325-1.083-0.758
			c-1.12-3.121-1.696-6.32-1.249-9.523c0.615-4.403,0.167-8.744,0.163-13.155c0-0.267-0.005-0.537,0.036-0.801
			c0.098-0.628,0.524-1.117,1.388-1.088c0.841,0.028,1.286,0.527,1.314,1.154c0.045,0.989,0.021,1.98,0.024,2.97
			c0.005,1.525,0.004,3.05,0.018,4.576c0.003,0.275,0.068,0.549,0.105,0.824C99.886,70.921,100.165,70.925,100.303,70.929z"/>
	</g>
</g>
<line fill="none" stroke="#000000" stroke-miterlimit="10" x1="87.986" y1="55.422" x2="120.648" y2="88.084"/>
<line fill="none" stroke="#000000" stroke-miterlimit="10" x1="87.655" y1="88.084" x2="120.317" y2="55.422"/>
<g>
	<path id="SW_3_" fill="none" stroke="#010202" stroke-width="0.5" stroke-linejoin="round" d="M57.39,108.219v-4.938l1.198,1.303
		l2.553-2.606l2.579,2.606l-2.619,2.469l1.29,1.166H57.39z"/>
	<path id="SW_4_" fill="none" stroke="#010202" stroke-width="0.5" stroke-linejoin="round" d="M151.548,108.264h-5.001l1.303-1.199
		l-2.606-2.554l2.606-2.58l2.501,2.619l1.198-1.29V108.264z"/>
	<path id="SW_1_" fill="none" stroke="#010202" stroke-width="0.5" stroke-linejoin="round" d="M151.503,32.116v4.915l-1.198-1.303
		l-2.553,2.606l-2.579-2.606l2.619-2.458l-1.29-1.155H151.503z"/>
	<path id="SW_2_" fill="none" stroke="#010202" stroke-width="0.5" stroke-linejoin="round" d="M57.431,32.137h5.001l-1.303,1.183
		l2.606,2.546l-2.606,2.576l-2.501-2.621l-1.198,1.288V32.137z"/>
</g>
</svg>
