<?xml version="1.0" encoding="utf-8"?>
<!-- Generator: Adobe Illustrator 17.0.0, SVG Export Plug-In . SVG Version: 6.00 Build 0)  -->
<!DOCTYPE svg PUBLIC "-//W3C//DTD SVG 1.1//EN" "http://www.w3.org/Graphics/SVG/1.1/DTD/svg11.dtd">
<svg version="1.1" id="Ebene_1" xmlns="http://www.w3.org/2000/svg" xmlns:xlink="http://www.w3.org/1999/xlink" x="0px" y="0px"
	 width="211px" height="141px" viewBox="0 0 211 141" enable-background="new 0 0 211 141" xml:space="preserve">
<radialGradient id="SVGID_1_" cx="105.5" cy="81.5406" r="91.0038" gradientTransform="matrix(1 0 0 0.9565 0 -7.4897)" gradientUnits="userSpaceOnUse">
	<stop  offset="0.291" style="stop-color:#FFFFFF"/>
	<stop  offset="1" style="stop-color:#E6E6E6"/>
</radialGradient>
<rect x="0" fill="url(#SVGID_1_)" width="211" height="141"/>
<g>
	<polygon fill="#FFFFFF" stroke="#010202" stroke-linejoin="round" stroke-miterlimit="10" points="36.823,19.743 33.936,16.843
		32.455,18.325 35.287,21.251 35.303,118.833 32.342,121.834 33.873,123.537 36.854,120.743 175.547,120.743 178.528,123.539
		180.06,121.824 177.1,118.832 177.119,21.259 179.955,18.345 178.483,16.842 175.614,19.743 	"/>
	<line fill="none" stroke="#010202" stroke-width="0.5" stroke-miterlimit="10" x1="36.823" y1="19.743" x2="35.287" y2="21.251"/>

		<line fill="none" stroke="#010202" stroke-width="0.5" stroke-miterlimit="10" x1="35.303" y1="118.833" x2="36.854" y2="120.743"/>

		<line fill="none" stroke="#010202" stroke-width="0.5" stroke-miterlimit="10" x1="175.614" y1="19.743" x2="177.119" y2="21.259"/>

		<line fill="none" stroke="#010202" stroke-width="0.5" stroke-miterlimit="10" x1="177.1" y1="118.832" x2="175.547" y2="120.743"/>
</g>
<line fill="none" stroke="#010202" stroke-width="0.75" stroke-miterlimit="10" x1="48.5" y1="19.69" x2="48.5" y2="120.69"/>
<line fill="none" stroke="#010202" stroke-width="0.75" stroke-miterlimit="10" x1="163.5" y1="19.69" x2="163.5" y2="120.69"/>
<path fill="none" stroke="#010202" stroke-width="0.5" stroke-miterlimit="10" d="M36.823,19.59"/>
<path fill="none" stroke="#010202" stroke-width="1.2" stroke-linejoin="round" stroke-miterlimit="10" d="M36.823,19.59"/>
<circle fill="none" stroke="#010202" stroke-width="0.75" stroke-miterlimit="10" cx="171.149" cy="115.362" r="2.462"/>
<g>
	<rect x="56.468" y="31.19" fill="none" stroke="#000000" stroke-width="0.75" stroke-miterlimit="10" width="96" height="78"/>

		<line fill="none" stroke="#000000" stroke-width="0.75" stroke-linecap="round" stroke-miterlimit="10" x1="56.468" y1="31.19" x2="53.55" y2="28.272"/>

		<line fill="none" stroke="#000000" stroke-width="0.75" stroke-linecap="round" stroke-miterlimit="10" x1="155.387" y1="112.109" x2="152.468" y2="109.19"/>

		<line fill="none" stroke="#000000" stroke-width="0.75" stroke-linecap="round" stroke-miterlimit="10" x1="152.468" y1="31.19" x2="155.387" y2="28.272"/>

		<line fill="none" stroke="#000000" stroke-width="0.75" stroke-linecap="round" stroke-miterlimit="10" x1="53.55" y1="112.109" x2="56.468" y2="109.19"/>
</g>
<g>
	<rect x="57.145" y="31.852" opacity="0.7" fill="#775035" width="94.645" height="76.676"/>
	<line opacity="0.4" fill="none" stroke="#775035" stroke-miterlimit="10" x1="58.672" y1="31.852" x2="58.672" y2="108.528"/>
	<line opacity="0.4" fill="none" stroke="#775035" stroke-miterlimit="10" x1="60.707" y1="31.852" x2="60.707" y2="108.528"/>
	<line opacity="0.4" fill="none" stroke="#775035" stroke-miterlimit="10" x1="62.743" y1="31.852" x2="62.743" y2="108.528"/>
	<line opacity="0.4" fill="none" stroke="#775035" stroke-miterlimit="10" x1="64.778" y1="31.852" x2="64.778" y2="108.528"/>
	<line opacity="0.4" fill="none" stroke="#775035" stroke-miterlimit="10" x1="66.813" y1="31.852" x2="66.813" y2="108.528"/>
	<line opacity="0.4" fill="none" stroke="#775035" stroke-miterlimit="10" x1="68.849" y1="31.852" x2="68.849" y2="108.528"/>
	<line opacity="0.4" fill="none" stroke="#775035" stroke-miterlimit="10" x1="70.884" y1="31.852" x2="70.884" y2="108.528"/>
	<line opacity="0.4" fill="none" stroke="#775035" stroke-miterlimit="10" x1="72.92" y1="31.852" x2="72.92" y2="108.528"/>
	<line opacity="0.4" fill="none" stroke="#775035" stroke-miterlimit="10" x1="74.955" y1="31.852" x2="74.955" y2="108.528"/>
	<line opacity="0.4" fill="none" stroke="#775035" stroke-miterlimit="10" x1="76.99" y1="31.852" x2="76.99" y2="108.528"/>
	<line opacity="0.4" fill="none" stroke="#775035" stroke-miterlimit="10" x1="79.026" y1="31.852" x2="79.026" y2="108.528"/>
	<line opacity="0.4" fill="none" stroke="#775035" stroke-miterlimit="10" x1="81.061" y1="31.852" x2="81.061" y2="108.528"/>
	<line opacity="0.4" fill="none" stroke="#775035" stroke-miterlimit="10" x1="83.096" y1="31.852" x2="83.096" y2="108.528"/>
	<line opacity="0.4" fill="none" stroke="#775035" stroke-miterlimit="10" x1="85.132" y1="31.852" x2="85.132" y2="108.528"/>
	<line opacity="0.4" fill="none" stroke="#775035" stroke-miterlimit="10" x1="87.167" y1="31.852" x2="87.167" y2="108.528"/>
	<line opacity="0.4" fill="none" stroke="#775035" stroke-miterlimit="10" x1="89.203" y1="31.852" x2="89.203" y2="108.528"/>
	<line opacity="0.4" fill="none" stroke="#775035" stroke-miterlimit="10" x1="91.238" y1="31.852" x2="91.238" y2="108.528"/>
	<line opacity="0.4" fill="none" stroke="#775035" stroke-miterlimit="10" x1="93.273" y1="31.852" x2="93.273" y2="108.528"/>
	<line opacity="0.4" fill="none" stroke="#775035" stroke-miterlimit="10" x1="95.309" y1="31.852" x2="95.309" y2="108.528"/>
	<line opacity="0.4" fill="none" stroke="#775035" stroke-miterlimit="10" x1="97.344" y1="31.852" x2="97.344" y2="108.528"/>
	<line opacity="0.4" fill="none" stroke="#775035" stroke-miterlimit="10" x1="99.38" y1="31.852" x2="99.38" y2="108.528"/>
	<line opacity="0.4" fill="none" stroke="#775035" stroke-miterlimit="10" x1="101.415" y1="31.852" x2="101.415" y2="108.528"/>
	<line opacity="0.4" fill="none" stroke="#775035" stroke-miterlimit="10" x1="103.45" y1="31.852" x2="103.45" y2="108.528"/>
	<line opacity="0.4" fill="none" stroke="#775035" stroke-miterlimit="10" x1="105.486" y1="31.852" x2="105.486" y2="108.528"/>
	<line opacity="0.4" fill="none" stroke="#775035" stroke-miterlimit="10" x1="107.521" y1="31.852" x2="107.521" y2="108.528"/>
	<line opacity="0.4" fill="none" stroke="#775035" stroke-miterlimit="10" x1="109.556" y1="31.852" x2="109.556" y2="108.528"/>
	<line opacity="0.4" fill="none" stroke="#775035" stroke-miterlimit="10" x1="111.592" y1="31.852" x2="111.592" y2="108.528"/>
	<line opacity="0.4" fill="none" stroke="#775035" stroke-miterlimit="10" x1="113.627" y1="31.852" x2="113.627" y2="108.528"/>
	<line opacity="0.4" fill="none" stroke="#775035" stroke-miterlimit="10" x1="115.663" y1="31.852" x2="115.663" y2="108.528"/>
	<line opacity="0.4" fill="none" stroke="#775035" stroke-miterlimit="10" x1="117.698" y1="31.852" x2="117.698" y2="108.528"/>
	<line opacity="0.4" fill="none" stroke="#775035" stroke-miterlimit="10" x1="119.733" y1="31.852" x2="119.733" y2="108.528"/>
	<line opacity="0.4" fill="none" stroke="#775035" stroke-miterlimit="10" x1="121.769" y1="31.852" x2="121.769" y2="108.528"/>
	<line opacity="0.4" fill="none" stroke="#775035" stroke-miterlimit="10" x1="123.804" y1="31.852" x2="123.804" y2="108.528"/>
	<line opacity="0.4" fill="none" stroke="#775035" stroke-miterlimit="10" x1="125.84" y1="31.852" x2="125.84" y2="108.528"/>
	<line opacity="0.4" fill="none" stroke="#775035" stroke-miterlimit="10" x1="127.875" y1="31.852" x2="127.875" y2="108.528"/>
	<line opacity="0.4" fill="none" stroke="#775035" stroke-miterlimit="10" x1="129.91" y1="31.852" x2="129.91" y2="108.528"/>
	<line opacity="0.4" fill="none" stroke="#775035" stroke-miterlimit="10" x1="131.946" y1="31.852" x2="131.946" y2="108.528"/>
	<line opacity="0.4" fill="none" stroke="#775035" stroke-miterlimit="10" x1="133.981" y1="31.852" x2="133.981" y2="108.528"/>
	<line opacity="0.4" fill="none" stroke="#775035" stroke-miterlimit="10" x1="136.016" y1="31.852" x2="136.016" y2="108.528"/>
	<line opacity="0.4" fill="none" stroke="#775035" stroke-miterlimit="10" x1="138.052" y1="31.852" x2="138.052" y2="108.528"/>
	<line opacity="0.4" fill="none" stroke="#775035" stroke-miterlimit="10" x1="140.087" y1="31.852" x2="140.087" y2="108.528"/>
	<line opacity="0.4" fill="none" stroke="#775035" stroke-miterlimit="10" x1="142.123" y1="31.852" x2="142.123" y2="108.528"/>
	<line opacity="0.4" fill="none" stroke="#775035" stroke-miterlimit="10" x1="144.158" y1="31.852" x2="144.158" y2="108.528"/>
	<line opacity="0.4" fill="none" stroke="#775035" stroke-miterlimit="10" x1="146.193" y1="31.852" x2="146.193" y2="108.528"/>
	<line opacity="0.4" fill="none" stroke="#775035" stroke-miterlimit="10" x1="148.229" y1="31.852" x2="148.229" y2="108.528"/>
	<line opacity="0.4" fill="none" stroke="#775035" stroke-miterlimit="10" x1="150.264" y1="31.852" x2="150.264" y2="108.528"/>
</g>
<g>
	<path id="SW_12_" fill="#E52427" d="M57.105,108.482v-4.97l1.204,1.311l2.567-2.623l2.594,2.623l-2.634,2.485l1.297,1.174H57.105z"
		/>
	<path id="SW_11_" fill="#E52427" d="M151.791,108.528h-5.029l1.31-1.206l-2.62-2.57l2.62-2.596l2.515,2.636l1.204-1.298V108.528z"
		/>
	<path id="SW_10_" fill="#E52427" d="M151.745,31.885v4.947l-1.204-1.311l-2.567,2.623l-2.594-2.623l2.634-2.474l-1.297-1.162
		H151.745z"/>
	<path id="SW_9_" fill="#E52427" d="M57.146,31.906h5.029l-1.31,1.191l2.62,2.563l-2.62,2.593l-2.515-2.638l-1.204,1.296V31.906z"/>
</g>
</svg>
