<?xml version="1.0" standalone="no"?>
<!DOCTYPE svg PUBLIC "-//W3C//DTD SVG 20010904//EN"
 "http://www.w3.org/TR/2001/REC-SVG-20010904/DTD/svg10.dtd">
<svg version="1.0" xmlns="http://www.w3.org/2000/svg"
 width="655.000000pt" height="524.000000pt" viewBox="0 0 655.000000 524.000000"
 preserveAspectRatio="xMidYMid meet">
<metadata>
Created by potrace 1.16, written by Peter Selinger 2001-2019
</metadata>
<g transform="translate(0.000000,524.000000) scale(0.100000,-0.100000)"
fill="#000000" stroke="none">
<path d="M4191 5032 c-196 -503 -231 -585 -286 -667 -55 -84 -128 -157 -198
-202 -21 -13 -169 -91 -328 -172 -160 -82 -290 -152 -290 -157 0 -5 135 -77
298 -161 315 -161 395 -211 466 -296 87 -103 101 -133 290 -627 52 -135 98
-244 102 -243 4 1 71 161 149 356 78 194 157 379 176 410 47 79 139 178 202
219 29 19 184 101 343 183 160 81 293 151 297 154 9 8 -30 29 -327 178 -126
64 -258 134 -292 155 -127 80 -236 226 -306 408 -96 251 -229 586 -235 592 -4
4 -32 -54 -61 -130z"/>
<path d="M2515 4788 c-114 -43 -184 -155 -172 -274 21 -202 258 -304 419 -181
147 112 127 355 -37 439 -47 25 -164 34 -210 16z"/>
<path d="M1506 3883 c-93 -241 -185 -469 -204 -508 -77 -156 -193 -295 -316
-380 -32 -22 -237 -131 -454 -242 -218 -111 -398 -205 -399 -210 -2 -4 7 -13
20 -19 120 -56 737 -377 787 -409 140 -90 263 -222 336 -361 35 -65 163 -386
364 -912 17 -45 36 -80 41 -77 5 4 9 10 9 15 0 16 349 889 381 952 70 139 176
266 288 346 36 26 245 139 465 252 219 113 400 209 400 213 1 5 -177 99 -394
210 -218 111 -413 213 -435 226 -72 46 -156 122 -214 195 -106 134 -110 144
-382 848 -62 164 -116 298 -119 298 -3 0 -81 -197 -174 -437z"/>
<path d="M5108 2780 c-180 -54 -237 -299 -102 -434 124 -124 340 -90 418 66
49 99 27 238 -50 310 -63 59 -179 84 -266 58z"/>
<path d="M3840 1618 c-138 -359 -168 -414 -259 -483 -27 -21 -138 -84 -246
-140 -108 -56 -197 -105 -197 -110 0 -4 94 -56 208 -114 170 -86 218 -116 264
-161 77 -75 96 -110 197 -374 49 -125 93 -228 98 -229 5 -1 51 106 102 237 96
250 134 320 207 382 23 20 137 85 254 146 118 61 210 114 205 118 -4 5 -93 52
-198 106 -324 166 -333 176 -479 558 -42 109 -80 205 -84 213 -6 10 -28 -37
-72 -149z"/>
<path d="M2399 602 c-96 -50 -145 -141 -137 -252 10 -133 106 -228 240 -238
156 -12 277 101 278 259 0 151 -108 258 -261 259 -54 0 -77 -5 -120 -28z"/>
</g>
</svg>
