<?xml version="1.0" encoding="utf-8"?>
<!-- Generator: Adobe Illustrator 26.2.0, SVG Export Plug-In . SVG Version: 6.00 Build 0)  -->
<svg version="1.1" id="Ebene_1" xmlns="http://www.w3.org/2000/svg" xmlns:xlink="http://www.w3.org/1999/xlink" x="0px" y="0px"
	 viewBox="0 0 63.5 49.7" style="enable-background:new 0 0 63.5 49.7;" xml:space="preserve">
<style type="text/css">
	.st0{fill:#E15311;}
</style>
<g>
	<path class="st0" d="M43.6,30.5c0-5.3-3.1-8.3-9-8.8l-4.8-0.4c-2.2-0.2-3.1-1.1-3.1-2.6c0-1.5,1.3-2.8,4.4-2.8c2.4-0.2,5,0.4,7,2
		l4.6-4.6c-2.8-2.6-6.8-3.5-11.4-3.5c-6.1,0-11.6,3.3-11.6,9.6c0,5.5,3.3,7.9,8.8,8.5l4.8,0.4c2.4,0.2,3.3,1.3,3.3,2.8
		c0,2.2-2.6,3.1-5.3,3.1c-2.8,0.2-5.9-0.9-8.1-2.8l-4.8,4.8c3.9,3.7,8.1,4.4,12.9,4.4C37.9,40.3,43.6,37,43.6,30.5"/>
	<g>
		<polygon class="st0" points="14.9,43.2 6.6,43.2 6.6,6.6 14.9,6.6 14.9,0 0,0 0,49.7 14.9,49.7 		"/>
		<polygon class="st0" points="48.6,0 48.6,6.6 57,6.6 57,43.2 48.6,43.2 48.6,49.7 63.5,49.7 63.5,0 		"/>
	</g>
</g>
</svg>
