<?xml version="1.0" encoding="UTF-8" standalone="no"?>
<!-- Created with Inkscape (http://www.inkscape.org/) -->

<svg
   xmlns:dc="http://purl.org/dc/elements/1.1/"
   xmlns:cc="http://creativecommons.org/ns#"
   xmlns:rdf="http://www.w3.org/1999/02/22-rdf-syntax-ns#"
   xmlns:svg="http://www.w3.org/2000/svg"
   xmlns="http://www.w3.org/2000/svg"
   xmlns:sodipodi="http://sodipodi.sourceforge.net/DTD/sodipodi-0.dtd"
   xmlns:inkscape="http://www.inkscape.org/namespaces/inkscape"
   width="100"
   height="100"
   viewBox="0 0 26.458333 26.458333"
   version="1.1"
   id="svg8"
   inkscape:version="0.92.4 (5da689c313, 2019-01-14)"
   sodipodi:docname="line_overlay5.svg">
  <defs
     id="defs2" />
  <sodipodi:namedview
     id="base"
     pagecolor="#ffffff"
     bordercolor="#666666"
     borderopacity="1.0"
     inkscape:pageopacity="0.0"
     inkscape:pageshadow="2"
     inkscape:zoom="1.979899"
     inkscape:cx="218.34125"
     inkscape:cy="87.048609"
     inkscape:document-units="mm"
     inkscape:current-layer="layer1"
     showgrid="false"
     fit-margin-top="0"
     fit-margin-left="0"
     fit-margin-right="0"
     fit-margin-bottom="0"
     units="px"
     inkscape:window-width="2560"
     inkscape:window-height="1349"
     inkscape:window-x="0"
     inkscape:window-y="0"
     inkscape:window-maximized="1" />
  <metadata
     id="metadata5">
    <rdf:RDF>
      <cc:Work
         rdf:about="">
        <dc:format>image/svg+xml</dc:format>
        <dc:type
           rdf:resource="http://purl.org/dc/dcmitype/StillImage" />
        <dc:title></dc:title>
      </cc:Work>
    </rdf:RDF>
  </metadata>
  <g
     inkscape:label="Layer 1"
     inkscape:groupmode="layer"
     id="layer1"
     transform="translate(-35.479615,-185.16892)">
    <path
       style="opacity:1;vector-effect:none;fill:#ffffff;fill-opacity:1;stroke:none;stroke-width:4.88999891;stroke-linecap:butt;stroke-linejoin:bevel;stroke-miterlimit:4;stroke-dasharray:none;stroke-dashoffset:0;stroke-opacity:1;paint-order:normal"
       d="M 0 0.001953125 L 0 77.767578 C 4.0038758 74.706866 7.6267375 71.699783 11.009766 68.751953 C 12.88988 57.289515 16.7705 46.328919 23.720703 37.865234 C 29.214458 31.175168 34.309426 26.978098 38.160156 25.367188 C 39.12284 24.964517 40.021564 24.715656 40.898438 24.681641 C 41.775314 24.646831 42.693833 24.858683 43.394531 25.464844 C 44.095225 26.071004 44.442605 26.978726 44.515625 27.892578 C 44.588657 28.80643 44.434527 29.784018 44.103516 30.896484 C 42.075107 37.713807 33.859021 52.694197 13.570312 70.457031 C 13.312307 72.220559 12.593423 73.83528 12.464844 75.625 C 12.255277 78.541888 12.368656 80.858413 12.736328 82.503906 C 13.103985 84.149361 13.698574 85.041219 14.308594 85.449219 C 14.918613 85.85703 15.727297 85.981965 17.107422 85.566406 C 18.48755 85.150885 20.313275 84.148519 22.466797 82.511719 C 29.631288 77.066289 32.428809 72.60826 38.765625 63.244141 L 41.164062 64.861328 C 41.162479 64.865108 41.165642 64.866797 41.164062 64.869141 C 41.157637 64.880479 41.156816 64.879286 41.150391 64.890625 C 36.273715 72.12774 32.908765 78.614766 31.716797 82.667969 C 31.119858 84.697877 31.236653 86.078228 31.353516 86.291016 C 31.411947 86.398354 31.322631 86.350623 31.523438 86.380859 C 31.723291 86.409584 32.240598 86.367827 33 86.083984 C 34.400043 85.553906 36.652508 83.892819 38.994141 81.699219 C 41.335773 79.505619 43.833725 76.791261 46.117188 74.15625 C 50.684112 68.886266 54.371094 63.947266 54.371094 63.947266 L 56.902344 65.267578 C 56.902344 65.267578 56.006013 67.672326 55.685547 68.589844 C 56.524787 67.935419 57.291964 66.785706 58.136719 66.292969 C 60.8786 64.693699 63.582344 63.911766 65.9375 63.761719 C 68.292656 63.611747 70.326914 64.037142 71.740234 65.208984 C 73.675402 66.813469 74.034174 69.273698 73.519531 71.453125 C 73.004884 73.632552 71.805555 75.788348 70.566406 77.876953 C 69.327254 79.96552 68.030313 81.9855 67.275391 83.603516 C 66.89791 84.412523 66.666974 85.117721 66.603516 85.605469 C 66.540057 86.093028 66.603587 86.289028 66.712891 86.439453 C 66.721429 86.45117 66.79775 86.56212 67.414062 86.550781 C 68.030379 86.538914 69.007313 86.334664 70.160156 85.929688 C 71.454773 85.474859 73.244937 84.401503 74.871094 83.552734 C 74.811604 82.554599 74.287244 81.740615 74.597656 80.623047 C 75.235682 78.326001 76.599948 75.778236 78.724609 73.232422 C 80.31683 71.324592 82.740008 68.780669 85.515625 66.640625 C 88.291242 64.500581 91.405357 62.702037 94.632812 62.611328 C 95.505691 62.586761 96.36945 62.704413 97.148438 63.185547 C 97.927425 63.666681 98.499017 64.6115 98.566406 65.585938 C 98.701199 67.534889 97.6025 69.529819 95.289062 72.361328 C 92.754303 75.463753 86.388058 80.313052 80.052734 84.166016 C 79.338234 84.600548 78.741851 84.777558 78.037109 85.177734 C 78.47756 85.53815 78.976098 85.930298 80.103516 86.158203 C 81.536792 86.448093 83.458995 86.514639 85.648438 86.298828 C 89.83697 85.886114 95.015602 84.44977 99.998047 81.960938 L 99.998047 0.001953125 L 0 0.001953125 z M 41.009766 27.574219 C 40.630305 27.589299 40.021821 27.728827 39.275391 28.041016 C 36.289673 29.290036 31.259546 33.238103 25.957031 39.695312 C 20.107392 46.818739 16.699425 56.003487 14.597656 65.650391 C 32.404454 49.272073 39.663547 35.684498 41.333984 30.070312 C 41.597644 29.184164 41.668089 28.514165 41.636719 28.121094 C 41.605311 27.728023 41.524694 27.667335 41.503906 27.648438 C 41.483157 27.630674 41.389226 27.559101 41.009766 27.574219 z M 94.712891 65.503906 C 92.580768 65.563887 89.816486 66.971527 87.279297 68.927734 C 84.742104 70.883942 82.421551 73.31509 80.945312 75.083984 C 79.041591 77.365043 77.878491 79.604875 77.380859 81.396484 C 77.257647 81.840579 77.444977 81.893783 77.402344 82.267578 C 77.816697 82.025877 78.129169 81.945391 78.546875 81.691406 C 84.674702 77.964641 91.142999 72.859099 93.044922 70.53125 C 95.16817 67.932522 95.708034 66.191808 95.679688 65.783203 C 95.665439 65.578731 95.708125 65.691334 95.628906 65.642578 C 95.549672 65.593822 95.226101 65.488788 94.712891 65.503906 z M 66.123047 66.648438 C 64.26796 66.766586 61.967427 67.402278 59.589844 68.789062 C 57.546639 69.980823 55.486079 72.051319 53.521484 74.494141 C 53.457081 74.658928 53.469834 74.638388 53.404297 74.804688 C 51.510345 79.611869 49.240141 84.670208 47.033203 87.714844 C 47.006595 87.813867 46.955766 87.851392 46.929688 87.951172 L 46.921875 87.943359 C 46.829844 88.067063 46.748055 88.367146 46.65625 88.482422 L 44.132812 87.220703 C 45.757072 81.024697 48.229724 76.529217 50.998047 72.974609 C 51.093178 72.728184 51.081759 72.743087 51.173828 72.501953 C 49.909716 74.068681 49.893636 74.216904 48.302734 76.052734 C 45.978438 78.734838 43.423612 81.507227 40.964844 83.810547 C 38.50608 86.113867 36.210895 87.957666 34.025391 88.785156 C 32.985741 89.175922 32.046584 89.37907 31.111328 89.244141 C 30.176069 89.109325 29.269391 88.499393 28.822266 87.685547 C 27.928011 86.057856 28.2563 84.170629 28.939453 81.847656 C 29.178996 81.033092 30.294449 79.510233 30.660156 78.583984 C 28.733444 80.686611 26.925618 82.755593 24.216797 84.814453 C 21.896326 86.578132 19.844693 87.762848 17.941406 88.335938 C 16.038123 88.908989 14.158109 88.823455 12.699219 87.847656 C 11.240329 86.871858 10.380795 85.202305 9.9179688 83.130859 C 9.4551278 81.059452 9.3617104 78.511588 9.5839844 75.417969 C 9.6402729 74.634548 9.9921018 73.929956 10.072266 73.150391 C 6.8562575 75.845737 3.5982411 78.554664 0 81.310547 L 0 100 L 99.998047 100 L 99.998047 85.185547 C 95.110947 87.450616 90.159019 88.76156 85.935547 89.177734 C 83.532742 89.414635 81.365083 89.364156 79.535156 88.994141 C 77.705226 88.624087 76.136844 87.949854 75.158203 86.646484 C 75.154046 86.638925 75.162361 86.630606 75.158203 86.623047 C 73.807638 87.293535 72.31714 88.232174 71.121094 88.652344 C 69.798369 89.11715 68.595061 89.420682 67.466797 89.443359 C 66.338532 89.465092 65.104178 89.143131 64.373047 88.136719 C 63.742539 87.269015 63.605177 86.199238 63.730469 85.236328 C 63.855768 84.273418 64.207012 83.337583 64.654297 82.378906 C 65.548858 80.461628 66.880547 78.428033 68.080078 76.40625 C 69.279606 74.38443 70.325612 72.371211 70.699219 70.789062 C 71.072825 69.206914 70.961148 68.314021 69.894531 67.429688 C 69.363863 66.989599 67.978137 66.530138 66.123047 66.648438 z "
       transform="matrix(0.26458333,0,0,0.26458333,35.479615,185.16892)"
       id="path828" />
  </g>
</svg>
