<?xml version="1.0" encoding="UTF-8" standalone="no"?>
<!-- Created with Inkscape (http://www.inkscape.org/) -->

<svg
   xmlns:dc="http://purl.org/dc/elements/1.1/"
   xmlns:cc="http://creativecommons.org/ns#"
   xmlns:rdf="http://www.w3.org/1999/02/22-rdf-syntax-ns#"
   xmlns:svg="http://www.w3.org/2000/svg"
   xmlns="http://www.w3.org/2000/svg"
   xmlns:sodipodi="http://sodipodi.sourceforge.net/DTD/sodipodi-0.dtd"
   xmlns:inkscape="http://www.inkscape.org/namespaces/inkscape"
   width="100"
   height="100"
   viewBox="0 0 26.458333 26.458333"
   version="1.1"
   id="svg8"
   inkscape:version="0.92.4 (5da689c313, 2019-01-14)"
   sodipodi:docname="line_overlay_drafts.svg">
  <defs
     id="defs2" />
  <sodipodi:namedview
     id="base"
     pagecolor="#ffffff"
     bordercolor="#666666"
     borderopacity="1.0"
     inkscape:pageopacity="0.0"
     inkscape:pageshadow="2"
     inkscape:zoom="2.8"
     inkscape:cx="240.32415"
     inkscape:cy="57.891496"
     inkscape:document-units="mm"
     inkscape:current-layer="layer1"
     showgrid="false"
     fit-margin-top="0"
     fit-margin-left="0"
     fit-margin-right="0"
     fit-margin-bottom="0"
     units="px"
     inkscape:window-width="2560"
     inkscape:window-height="1349"
     inkscape:window-x="0"
     inkscape:window-y="0"
     inkscape:window-maximized="1" />
  <metadata
     id="metadata5">
    <rdf:RDF>
      <cc:Work
         rdf:about="">
        <dc:format>image/svg+xml</dc:format>
        <dc:type
           rdf:resource="http://purl.org/dc/dcmitype/StillImage" />
        <dc:title></dc:title>
      </cc:Work>
    </rdf:RDF>
  </metadata>
  <g
     inkscape:label="Layer 1"
     inkscape:groupmode="layer"
     id="layer1"
     transform="translate(-35.479615,-185.16892)">
    <rect
       style="opacity:1;vector-effect:none;fill:#00ffff;fill-opacity:1;stroke:none;stroke-width:1.29381227;stroke-linecap:butt;stroke-linejoin:bevel;stroke-miterlimit:4;stroke-dasharray:none;stroke-dashoffset:0;stroke-opacity:1;paint-order:normal"
       id="rect865"
       width="150.74002"
       height="67.084656"
       x="64.879265"
       y="172.73953" />
    <path
       style="color:#000000;display:inline;overflow:visible;visibility:visible;opacity:1;fill:#ffffff;fill-opacity:1;fill-rule:nonzero;stroke:none;stroke-width:0.09999999;stroke-linecap:round;stroke-linejoin:round;stroke-miterlimit:4;stroke-dasharray:none;stroke-dashoffset:0;stroke-opacity:1;marker:none;enable-background:accumulate"
       d="m 35.479615,185.16892 v 13.81424 l 26.45833,-11.50896 v -2.30528 z m 26.45833,5.90413 -26.45833,11.50876 v 2.75135 l 26.45833,-11.50896 z m 0,6.35 -26.45833,11.50876 v 2.69544 h 26.45833 z"
       id="rect4485"
       inkscape:connector-curvature="0" />
    <path
       style="opacity:1;vector-effect:none;fill:#ffffff;fill-opacity:1;stroke:none;stroke-width:4.88999939;stroke-linecap:butt;stroke-linejoin:bevel;stroke-miterlimit:4;stroke-dasharray:none;stroke-dashoffset:0;stroke-opacity:1;paint-order:normal"
       d="M 134.85547 1.0058594 L 134.85547 62.404297 C 141.9903 56.966915 148.02111 53.078695 153.21484 50.408203 C 160.95454 46.428625 167.03436 45.074265 172.18555 45.320312 C 177.33673 45.566435 181.31656 47.384162 184.75 48.923828 C 188.18344 50.463494 191.06954 51.72546 194.74414 51.890625 C 198.41874 52.055904 203.1254 51.151067 210.09961 47.529297 C 216.39344 44.260856 224.44196 38.743542 234.85352 30.070312 L 234.85352 1.0058594 L 134.85547 1.0058594 z M 234.85352 39.220703 C 226.30412 46.032421 219.28757 50.696593 213.34766 53.78125 C 205.63239 57.787852 199.57139 59.164901 194.42773 58.933594 C 189.28408 58.702249 185.29873 56.894089 181.86328 55.353516 C 178.42783 53.812942 175.53589 52.539407 171.8457 52.363281 C 168.15552 52.186928 163.42961 53.076663 156.43359 56.673828 C 150.79308 59.574045 143.73396 64.283492 134.85547 71.40625 L 134.85547 101.00391 L 234.85352 101.00391 L 234.85352 39.220703 z "
       transform="matrix(0.26458333,0,0,0.26458333,35.479615,185.16892)"
       id="rect869" />
    <g
       id="g884"
       transform="rotate(-68.382469,41.124503,218.78953)">
      <path
         inkscape:connector-curvature="0"
         id="path879"
         d="m 75.302774,240.75963 v 20.84702"
         style="fill:none;stroke:#808080;stroke-width:0.1;stroke-linecap:butt;stroke-linejoin:miter;stroke-opacity:1;stroke-miterlimit:4;stroke-dasharray:none" />
      <circle
         r="0.73499125"
         cy="240.9601"
         cx="75.369591"
         id="path875"
         style="opacity:1;vector-effect:none;fill:#ffffff;fill-opacity:1;stroke:#000000;stroke-width:0.12;stroke-linecap:butt;stroke-linejoin:bevel;stroke-miterlimit:4;stroke-dasharray:none;stroke-dashoffset:0;stroke-opacity:1;paint-order:normal" />
      <circle
         style="opacity:1;vector-effect:none;fill:#ffffff;fill-opacity:1;stroke:#000000;stroke-width:0.12;stroke-linecap:butt;stroke-linejoin:bevel;stroke-miterlimit:4;stroke-dasharray:none;stroke-dashoffset:0;stroke-opacity:1;paint-order:normal"
         id="circle877"
         cx="75.369591"
         cy="261.59747"
         r="0.73499125" />
      <path
         style="fill:none;stroke:#808080;stroke-width:0.1;stroke-linecap:butt;stroke-linejoin:miter;stroke-miterlimit:4;stroke-dasharray:none;stroke-opacity:1"
         d="m 76.426397,251.16895 -2.247248,0.0284"
         id="path886"
         inkscape:connector-curvature="0" />
    </g>
    <path
       style="opacity:1;vector-effect:none;fill:#ffffff;fill-opacity:1;stroke:none;stroke-width:4.88999939;stroke-linecap:butt;stroke-linejoin:bevel;stroke-miterlimit:4;stroke-dasharray:none;stroke-dashoffset:0;stroke-opacity:1;paint-order:normal"
       d="M 274.85547 1.0058594 L 274.85547 101.00391 L 374.85352 101.00391 L 374.85352 1.0058594 L 373.37891 1.0058594 C 372.84005 30.729876 366.64969 52.397268 357.79688 66.986328 C 348.52834 82.260533 336.1688 89.916016 324.51172 89.916016 C 312.88502 89.916016 300.76086 82.350463 291.73633 67.134766 C 283.11127 52.592598 277.09949 30.942215 276.35938 1.0058594 L 274.85547 1.0058594 z M 283.78906 1.0058594 C 284.53218 29.93058 290.395 50.321128 298.12109 63.347656 C 306.2221 77.006226 316.10866 82.488281 324.51172 82.488281 C 332.88443 82.488281 343.12006 76.855672 351.44727 63.132812 C 359.38847 50.046002 365.4089 29.684383 365.95117 1.0058594 L 283.78906 1.0058594 z "
       transform="matrix(0.26458333,0,0,0.26458333,35.479615,185.16892)"
       id="rect899" />
    <g
       transform="rotate(-90.013413,76.724948,206.57331)"
       id="g911">
      <path
         style="fill:none;stroke:#808080;stroke-width:0.1;stroke-linecap:butt;stroke-linejoin:miter;stroke-miterlimit:4;stroke-dasharray:none;stroke-opacity:1"
         d="m 75.302774,240.75963 v 20.84702"
         id="path903"
         inkscape:connector-curvature="0" />
      <circle
         style="opacity:1;vector-effect:none;fill:#ffffff;fill-opacity:1;stroke:#000000;stroke-width:0.12;stroke-linecap:butt;stroke-linejoin:bevel;stroke-miterlimit:4;stroke-dasharray:none;stroke-dashoffset:0;stroke-opacity:1;paint-order:normal"
         id="circle905"
         cx="75.369591"
         cy="240.9601"
         r="0.73499125" />
      <circle
         r="0.73499125"
         cy="261.59747"
         cx="75.369591"
         id="circle907"
         style="opacity:1;vector-effect:none;fill:#ffffff;fill-opacity:1;stroke:#000000;stroke-width:0.12;stroke-linecap:butt;stroke-linejoin:bevel;stroke-miterlimit:4;stroke-dasharray:none;stroke-dashoffset:0;stroke-opacity:1;paint-order:normal" />
      <path
         inkscape:connector-curvature="0"
         id="path909"
         d="m 76.426397,251.16895 -2.247248,0.0284"
         style="fill:none;stroke:#808080;stroke-width:0.1;stroke-linecap:butt;stroke-linejoin:miter;stroke-miterlimit:4;stroke-dasharray:none;stroke-opacity:1" />
    </g>
    <rect
       style="opacity:1;vector-effect:none;fill:#ffffff;fill-opacity:1;stroke:none;stroke-width:1.29381239;stroke-linecap:butt;stroke-linejoin:bevel;stroke-miterlimit:4;stroke-dasharray:none;stroke-dashoffset:0;stroke-opacity:1;paint-order:normal"
       id="rect916"
       width="26.458"
       height="26.458"
       x="140.48071"
       y="185.43484" />
    <path
       sodipodi:nodetypes="cccc"
       inkscape:connector-curvature="0"
       id="path918"
       d="m 142.04071,205.09903 8.40807,-6.86461 7.28564,0.0795 7.64508,-6.44473"
       style="fill:none;stroke:#000000;stroke-width:1.96500003;stroke-linecap:butt;stroke-linejoin:miter;stroke-miterlimit:4;stroke-dasharray:none;stroke-opacity:1" />
    <circle
       style="opacity:1;vector-effect:none;fill:#ffffff;fill-opacity:1;stroke:#000000;stroke-width:0.12;stroke-linecap:butt;stroke-linejoin:bevel;stroke-miterlimit:4;stroke-dasharray:none;stroke-dashoffset:0;stroke-opacity:1;paint-order:normal"
       id="circle922"
       cx="-198.27025"
       cy="150.40814"
       r="0.73499125"
       transform="rotate(-90.013413)" />
    <path
       id="path933"
       d="m 171.70183,211.89287 v -26.45782 h 26.45781 v 26.45782 h -0.39015 c -0.14258,-7.86448 -1.78044,-13.59731 -4.12275,-17.45734 -2.4523,-4.0413 -5.72243,-6.06681 -8.8067,-6.06681 -3.07623,0 -6.28408,2.00172 -8.67182,6.02754 -2.28205,3.84762 -3.87266,9.57595 -4.06848,17.49661 z m 2.36368,0 c 0.19661,-7.653 1.74782,-13.048 3.79201,-16.4946 2.14339,-3.61383 4.75921,-5.06429 6.98252,-5.06429 2.21528,0 4.92346,1.49029 7.1267,5.12113 2.10111,3.46255 3.69402,8.8499 3.83749,16.43776 z"
       style="opacity:1;vector-effect:none;fill:#ffffff;fill-opacity:1;stroke:none;stroke-width:1.29381227;stroke-linecap:butt;stroke-linejoin:bevel;stroke-miterlimit:4;stroke-dasharray:none;stroke-dashoffset:0;stroke-opacity:1;paint-order:normal"
       inkscape:connector-curvature="0" />
    <g
       id="g943"
       transform="matrix(-2.3410101e-4,0.99999997,0.99999997,2.3410101e-4,-66.330451,113.98126)">
      <path
         inkscape:connector-curvature="0"
         id="path935"
         d="m 75.302774,240.75963 v 20.84702"
         style="fill:none;stroke:#808080;stroke-width:0.1;stroke-linecap:butt;stroke-linejoin:miter;stroke-miterlimit:4;stroke-dasharray:none;stroke-opacity:1" />
      <circle
         r="0.73499125"
         cy="240.9601"
         cx="75.369591"
         id="circle937"
         style="opacity:1;vector-effect:none;fill:#ffffff;fill-opacity:1;stroke:#000000;stroke-width:0.12;stroke-linecap:butt;stroke-linejoin:bevel;stroke-miterlimit:4;stroke-dasharray:none;stroke-dashoffset:0;stroke-opacity:1;paint-order:normal" />
      <circle
         style="opacity:1;vector-effect:none;fill:#ffffff;fill-opacity:1;stroke:#000000;stroke-width:0.12;stroke-linecap:butt;stroke-linejoin:bevel;stroke-miterlimit:4;stroke-dasharray:none;stroke-dashoffset:0;stroke-opacity:1;paint-order:normal"
         id="circle939"
         cx="75.369591"
         cy="261.59747"
         r="0.73499125" />
      <path
         style="fill:none;stroke:#808080;stroke-width:0.1;stroke-linecap:butt;stroke-linejoin:miter;stroke-miterlimit:4;stroke-dasharray:none;stroke-opacity:1"
         d="m 76.426397,251.16895 -2.247248,0.0284"
         id="path941"
         inkscape:connector-curvature="0" />
    </g>
    <circle
       transform="rotate(-90.013413)"
       r="0.73499125"
       cy="142.04997"
       cx="-205.08484"
       id="circle949"
       style="opacity:1;vector-effect:none;fill:#ffffff;fill-opacity:1;stroke:#000000;stroke-width:0.12;stroke-linecap:butt;stroke-linejoin:bevel;stroke-miterlimit:4;stroke-dasharray:none;stroke-dashoffset:0;stroke-opacity:1;paint-order:normal" />
    <circle
       style="opacity:1;vector-effect:none;fill:#ffffff;fill-opacity:1;stroke:#000000;stroke-width:0.12;stroke-linecap:butt;stroke-linejoin:bevel;stroke-miterlimit:4;stroke-dasharray:none;stroke-dashoffset:0;stroke-opacity:1;paint-order:normal"
       id="circle951"
       cx="-205.08484"
       cy="142.04997"
       r="0.73499125"
       transform="rotate(-90.013413)" />
    <circle
       transform="rotate(-90.013413)"
       r="0.73499125"
       cy="157.68417"
       cx="-198.34282"
       id="circle953"
       style="opacity:1;vector-effect:none;fill:#ffffff;fill-opacity:1;stroke:#000000;stroke-width:0.12;stroke-linecap:butt;stroke-linejoin:bevel;stroke-miterlimit:4;stroke-dasharray:none;stroke-dashoffset:0;stroke-opacity:1;paint-order:normal" />
    <circle
       style="opacity:1;vector-effect:none;fill:#ffffff;fill-opacity:1;stroke:#000000;stroke-width:0.12;stroke-linecap:butt;stroke-linejoin:bevel;stroke-miterlimit:4;stroke-dasharray:none;stroke-dashoffset:0;stroke-opacity:1;paint-order:normal"
       id="circle955"
       cx="-191.94263"
       cy="165.31607"
       r="0.73499125"
       transform="rotate(-90.013413)" />
  </g>
</svg>
