<?xml version="1.0" encoding="UTF-8" standalone="no"?>
<svg
   xmlns:dc="http://purl.org/dc/elements/1.1/"
   xmlns:cc="http://creativecommons.org/ns#"
   xmlns:rdf="http://www.w3.org/1999/02/22-rdf-syntax-ns#"
   xmlns:svg="http://www.w3.org/2000/svg"
   xmlns="http://www.w3.org/2000/svg"
   width="24mm"
   height="18mm"
   viewBox="0 0 24 18"
   version="1.1"
   id="svg7">
  <metadata
     id="metadata13">
    <rdf:RDF>
      <cc:Work
         rdf:about="">
        <dc:format>image/svg+xml</dc:format>
        <dc:type
           rdf:resource="http://purl.org/dc/dcmitype/StillImage" />
        <dc:title></dc:title>
      </cc:Work>
    </rdf:RDF>
  </metadata>
  <defs
     id="defs11" />
  <g
     aria-label="abc"
     id="text4"
     style="font-size:10px;line-height:1.25;text-anchor:middle;stroke:none">
    <path
       d="M 7.8316045,11.860436 Q 7.6912147,11.704619 7.5453511,11.366447 7.3824653,11.698197 7.076621,11.99763 6.7693293,12.2924 6.3029944,12.437142 5.5288785,12.677415 4.9279332,12.388466 4.3269879,12.099517 4.1315858,11.469964 3.8797341,10.658542 4.365028,10.04778 4.8488745,9.4323558 5.8888013,9.1095803 L 6.7421942,8.8447018 6.6177158,8.4436538 Q 6.4787631,7.9959723 6.1257857,7.814112 5.7760243,7.6261409 5.2490659,7.7896998 4.7594142,7.9416792 4.5315626,8.2782559 4.3069268,8.6087218 4.4053516,8.9258295 L 3.5426321,9.1936029 Q 3.374731,8.6526544 3.7727056,8.0076443 4.1706802,7.3626341 5.0846966,7.0789391 5.905446,6.8241926 6.5626726,7.0803351 7.2198991,7.3364777 7.4833302,8.1852072 L 8.186778,10.451595 q 0.2171135,0.699502 0.521694,1.054875 l 0.023159,0.07461 z M 6.1944222,11.642599 Q 6.6607571,11.497857 6.9288104,11.159028 7.2015271,10.818751 7.2531347,10.490864 L 6.9303592,9.4509372 6.1282632,9.699894 q -1.4462803,0.479576 -1.1654801,1.384266 0.1114516,0.359078 0.4321066,0.535633 0.3192076,0.171891 0.7995325,0.02281 z"
       id="path15" />
    <path
       d="m 14.470676,8.8470885 q -0.0066,1.1572075 -0.547991,1.9158665 -0.541423,0.758658 -1.522853,0.753088 -1.00096,-0.0057 -1.538926,-0.716753 l -0.05229,0.610065 -0.8300646,-0.0047 0.042564,-7.4998793 0.908189,0.00515 -0.01582,2.788041 q 0.540897,-0.6658864 1.507678,-0.6603996 0.996078,0.00565 1.524084,0.750849 0.532889,0.7452237 0.526016,1.9561417 z M 12.19223,6.7979921 q -0.493157,-0.0028 -0.802127,0.2347094 -0.308942,0.2326255 -0.481805,0.5783297 l -0.01305,2.2997677 q 0.173783,0.3525541 0.48492,0.5935821 0.311138,0.241027 0.799411,0.243798 0.73241,0.0042 1.052975,-0.555556 0.325474,-0.5645685 0.329936,-1.3506887 l 5.82e-4,-0.1025374 q 0.0045,-0.7861201 -0.299909,-1.3591458 -0.29946,-0.5778807 -1.070931,-0.582259 z"
       id="path17" />
    <path
       d="m 17.812875,11.697403 q 0.460847,0.145925 0.892284,-0.01964 0.436092,-0.164096 0.604285,-0.58204 l 0.819283,0.259423 q -0.246314,0.66466 -0.993512,0.986333 -0.745724,0.317019 -1.546387,0.06349 -1.135825,-0.359655 -1.452459,-1.284519 -0.311978,-0.923389 0.0094,-1.9381832 l 0.06191,-0.1955108 q 0.321331,-1.0147939 1.107937,-1.5903204 0.79126,-0.5740525 1.927085,-0.2143975 0.884453,0.2800591 1.262529,0.9785337 0.37955,0.6938195 0.165977,1.4815255 L 19.851874,9.3826711 Q 19.966689,8.9068513 19.748672,8.4792943 19.535311,8.0532113 19.018603,7.8895978 18.487931,7.7215623 18.099863,7.8957437 17.716451,8.071399 17.459579,8.4458978 17.207363,8.8218705 17.068808,9.2594422 L 17.0069,9.454953 q -0.14003,0.4422267 -0.150185,0.894847 -0.01016,0.452621 0.202275,0.816948 0.218558,0.361145 0.753885,0.530655 z"
       id="path19" />
  </g>
  <path
     style="fill:none;stroke:#e25303;stroke-width:0.265;"
     d="M0,16 a18,18,0,0,1,24,0"
     id="baseline" />
</svg>
