<?xml version="1.0" encoding="UTF-8" standalone="no"?>
<svg
   xmlns:dc="http://purl.org/dc/elements/1.1/"
   xmlns:cc="http://creativecommons.org/ns#"
   xmlns:rdf="http://www.w3.org/1999/02/22-rdf-syntax-ns#"
   xmlns:svg="http://www.w3.org/2000/svg"
   xmlns="http://www.w3.org/2000/svg"
   width="24mm"
   height="18mm"
   viewBox="0 0 24 18"
   version="1.1"
   id="svg7">
  <metadata
     id="metadata13">
    <rdf:RDF>
      <cc:Work
         rdf:about="">
        <dc:format>image/svg+xml</dc:format>
        <dc:type
           rdf:resource="http://purl.org/dc/dcmitype/StillImage" />
        <dc:title></dc:title>
      </cc:Work>
    </rdf:RDF>
  </metadata>
  <defs
     id="defs11" />
  <g
     aria-label="abc"
     id="text4"
     style="font-size:10px;line-height:1.25;font-family:Roboto;text-anchor:middle;stroke:none">
    <path
       d="M 7.8316045,14.139564 Q 7.8041137,13.93164 7.8753637,13.570309 7.5532612,13.751527 7.1316231,13.825162 6.7114324,13.894134 6.2450975,13.749392 5.4709815,13.509119 5.139257,12.930685 4.8075325,12.352252 5.0029347,11.7227 5.2547864,10.911277 6.0006166,10.682635 6.7478941,10.44933 7.787821,10.772106 l 0.8533928,0.264878 0.1244784,-0.401048 Q 8.9046449,10.188255 8.7166738,9.8384934 8.5348135,9.485516 8.007855,9.3219572 7.5182034,9.1699777 7.1398197,9.3183893 6.7675468,9.463585 6.669122,9.7806928 L 5.8064024,9.5129194 Q 5.9743035,8.9719709 6.6675526,8.6656579 7.3608016,8.3593449 8.274818,8.6430399 9.0955674,8.8977864 9.4922577,9.4810466 9.888948,10.064307 9.6255169,10.913036 l -0.7034478,2.266388 q -0.2171135,0.699502 -0.1672795,1.164879 l -0.023159,0.07461 z m -1.226114,-1.106555 q 0.4663349,0.144743 0.8791305,0.01724 0.417459,-0.126058 0.6456523,-0.367099 L 8.4530488,11.64322 7.6509527,11.394263 q -1.4636494,-0.423616 -1.7444495,0.481074 -0.1114516,0.359077 0.052882,0.686164 0.1657807,0.322424 0.6461057,0.471508 z"
       id="path15" />
    <path
       d="m 14.441358,11.986979 q 0.0066,1.157208 -0.52621,1.921963 -0.532778,0.764754 -1.514207,0.770324 -1.000961,0.0057 -1.546962,-0.69924 l -0.04536,0.610619 -0.8300646,0.0047 -0.042564,-7.4998792 0.9081883,-0.00515 0.01582,2.788041 q 0.533304,-0.6719827 1.500086,-0.6774694 0.996077,-0.00565 1.532507,0.7335021 0.541313,0.7391277 0.548185,1.9500457 z M 12.139801,9.9638754 q -0.493156,0.0028 -0.799411,0.2437986 -0.306282,0.236117 -0.47521,0.583761 l 0.01305,2.299768 q 0.177773,0.350559 0.491626,0.588039 0.313853,0.237481 0.802126,0.23471 0.73241,-0.0042 1.046601,-0.567473 0.319046,-0.568226 0.314585,-1.354346 l -5.82e-4,-0.102537 q -0.0045,-0.78612 -0.315316,-1.355654 -0.305999,-0.5744449 -1.077471,-0.5700666 z"
       id="path17" />
    <path
       d="m 17.42374,13.073672 q 0.460847,-0.145925 0.718353,-0.529647 0.26216,-0.385196 0.159138,-0.823775 l 0.819283,-0.259424 q 0.181144,0.685296 -0.244722,1.378417 -0.427341,0.688465 -1.228004,0.941992 -1.135825,0.359655 -1.927085,-0.214397 -0.786606,-0.575527 -1.107937,-1.590321 l -0.06191,-0.195511 q -0.321331,-1.014794 -0.0094,-1.9381829 0.316634,-0.9248635 1.452459,-1.2845184 0.884453,-0.2800591 1.595652,0.0735 0.709724,0.3489046 0.988467,1.1159747 L 17.7588,10.007203 Q 17.578816,9.5520191 17.15444,9.3278736 16.734719,9.102254 16.218012,9.2658675 15.68734,9.433903 15.470255,9.7997038 q -0.212429,0.3643272 -0.206929,0.8184212 0.01016,0.452621 0.148711,0.890192 l 0.06191,0.195511 q 0.140029,0.442227 0.392245,0.8182 0.252216,0.375972 0.635629,0.551628 0.386594,0.169526 0.921921,1.6e-5 z"
       id="path19" />
  </g>
  <path
     style="fill:none;stroke:#e25303;stroke-width:0.265;"
     d="M0,10 a18,18,0,0,0,24,0"
     id="baseline" />
</svg>
