<?xml version="1.0" encoding="UTF-8" standalone="no"?>
<svg
   xmlns:dc="http://purl.org/dc/elements/1.1/"
   xmlns:cc="http://creativecommons.org/ns#"
   xmlns:rdf="http://www.w3.org/1999/02/22-rdf-syntax-ns#"
   xmlns:svg="http://www.w3.org/2000/svg"
   xmlns="http://www.w3.org/2000/svg"
   width="24mm"
   height="18mm"
   viewBox="0 0 24 18"
   version="1.1"
   id="svg7">

  <g transform="translate(11.897461,11.505677)">
    <path
       d="m -4.1943359,0 q -0.087891,-0.19042969 -0.1269532,-0.55664062 -0.2539062,0.26855468 -0.6347656,0.46386718 -0.3808594,0.19042969 -0.8691406,0.19042969 -0.8105469,0 -1.2988281,-0.45410156 -0.4882813,-0.45410157 -0.4882813,-1.11328129 0,-0.8496093 0.6445313,-1.2890625 0.6445312,-0.4443359 1.7333984,-0.4443359 h 0.8935547 v -0.4199219 q 0,-0.46875 -0.2832031,-0.7470703 -0.2783203,-0.2832031 -0.8300782,-0.2832031 -0.5126953,0 -0.8300781,0.2539062 -0.3125,0.2490235 -0.3125,0.5810547 H -7.5 q 0,-0.5664062 0.5712891,-1.0644531 0.571289,-0.4980469 1.5283203,-0.4980469 0.859375,0 1.4111328,0.4394532 0.5517578,0.4394531 0.5517578,1.3281249 v 2.3730469 q 0,0.7324219 0.1855469,1.1621094 V 0 Z m -1.4990235,-0.69335937 q 0.4882813,0 0.8447266,-0.24414063 0.3613281,-0.2441406 0.5078125,-0.5419922 v -1.0888672 h -0.8398438 q -1.5234375,0.029297 -1.5234375,0.9765625 0,0.3759766 0.2539063,0.63964846 0.2539062,0.25878907 0.7568359,0.25878907 z"
       id="path15" />
    <path
       d="m 2.4560547,-2.5830078 q 0,1.1572266 -0.5371094,1.9189453 -0.5371094,0.76171875 -1.51855467,0.76171875 -1.00097657,0 -1.54296873,-0.70800781 L -1.1914062,0 h -0.8300782 v -7.5 h 0.9082032 v 2.7880859 q 0.53710933,-0.6689453 1.5039062,-0.6689453 0.9960937,0 1.5283203,0.7421875 0.5371094,0.7421875 0.5371094,1.953125 z M 0.16601562,-4.6191406 q -0.49316406,0 -0.80078124,0.2392578 -0.30761719,0.234375 -0.47851558,0.5810547 v 2.2998047 Q -0.9375,-1.1474609 -0.625,-0.90820313 q 0.3125,0.23925782 0.80078125,0.23925782 0.73242188,0 1.04980465,-0.56152339 0.3222657,-0.5664063 0.3222657,-1.3525391 v -0.1025391 q 0,-0.7861328 -0.3076172,-1.3574218 Q 0.9375,-4.6191406 0.16601562,-4.6191406 Z"
       id="path17" />
    <path
       d="m 5.7128906,-0.64453125 q 0.4833985,0 0.8447266,-0.28808594 0.3662109,-0.28808591 0.4003906,-0.73730471 h 0.859375 q -0.03418,0.70800784 -0.6494141,1.2402344 -0.6152343,0.52734375 -1.4550781,0.52734375 -1.1914062,0 -1.7724609,-0.78613281 Q 3.3642578,-1.4746094 3.3642578,-2.5390625 v -0.2050781 q 0,-1.0644532 0.5761719,-1.850586 0.5810547,-0.7861328 1.7724609,-0.7861328 0.9277344,0 1.4990235,0.5517578 0.571289,0.546875 0.6054687,1.3623047 H 6.9580078 Q 6.9238281,-3.9550781 6.5869141,-4.296875 6.2548828,-4.6386719 5.7128906,-4.6386719 q -0.5566406,0 -0.8740234,0.2832032 -0.3125,0.2832031 -0.444336,0.7177734 -0.1269531,0.4345703 -0.1269531,0.8935547 v 0.2050781 q 0,0.4638672 0.1269531,0.8984375 0.1269532,0.4345703 0.4394532,0.71777344 0.3173828,0.27832031 0.8789062,0.27832031 z"
       id="path19" />
  </g>
  <path
     style="fill:none;stroke:#e25303;stroke-width:0.265;"
     d="M0,12 H24"
     id="baseline" />
</svg>
