<?xml version="1.0" encoding="iso-8859-1"?>
<!-- Generator: Adobe Illustrator 23.0.1, SVG Export Plug-In . SVG Version: 6.00 Build 0)  -->
<svg version="1.1" id="Layer_1" xmlns="http://www.w3.org/2000/svg" xmlns:xlink="http://www.w3.org/1999/xlink" x="0px" y="0px"
	 viewBox="0 0 1500 1500" style="enable-background:new 0 0 1500 1500;" xml:space="preserve">
<path d="M1091.152,1076.645c-2.529-33.839-10.46-66.934-17.3-100.077c-7.182-34.796-11.313-68.928-10.801-104.497
	c0.512-35.549,0.27-70.05-10.36-104.337c-10.059-32.446-25.329-63.463-41.32-93.343c-6.975-13.034-13.967-26.058-20.966-39.079
	c0.671-8.368,1.595-16.783,2.279-25.2c2.545-31.285-1.007-62.68-9.477-92.871c-4.149-14.792-11.501-28.256-15.96-42.858
	c-2.257-7.391-1.995-14.822-2.446-22.445c-0.445-7.516-1.845-14.926-3.825-22.181c-4.095-15.001-10.112-29.425-13.23-44.697
	c-3.448-16.884-3.987-34.195-6.25-51.246c-1.907-14.367-5.012-28.757-11.695-41.736c-2.722-5.285-6.024-10.678-10.037-15.344
	c-0.312-4.352-0.802-8.631-1.186-12.61c-1.186-12.292-3.196-24.524-6.158-36.515c-3.003-12.154-6.896-24.103-11.672-35.676
	c-4.017-9.733-8.276-23.568-17.237-29.949c-9.61-6.842-17.066,0-22.77,7.773c-7.417,10.106-14.005,20.785-19.992,31.794
	c-5.909,10.866-10.947,22.21-16.495,33.263c-2.397,4.775-3.355,6.622-8.687,7.93c-6.194,1.519-12.491,2.604-18.661,4.214
	c-13.187,3.443-26.455,8.106-39.008,13.404c-6.66,2.811-12.917,6.124-18.985,9.769c-23.776-23.748-53.878-40.317-86.7-47.843
	c-3.34-0.766-5.909,1.496-6.222,4.739c-3.282,34.06,3.307,67.287,15.562,99.009c2.696,6.979,5.7,13.819,8.715,20.664
	c4.098,9.306,4.818,17.484,3.703,27.546c-1.743,15.719-1.842,31.17,0.615,46.83c2.411,15.37,7.194,30.208,13.562,44.382
	c3.029,6.742,6.53,13.274,10.487,19.517c1.912,3.017,4.066,5.857,6.026,8.838c3.246,4.939,3.51,8.784,1.117,14.051
	c-13.536,29.799-18.857,60.689-19.27,93.332c-0.254,20.058,1.092,40.077,1.819,60.11c0.43,11.866,0.191,23.613-0.331,35.366
	c-14.784,21.145-31.011,41.382-41.32,65.176c-16.163,37.303-17.992,78.299-26.171,117.643
	c-4.254,20.463-11.188,39.699-19.459,58.854c-8.315,19.258-16.792,38.532-21.925,58.941c-10.396,41.33-5.659,85.202,4.675,126.035
	c6.018,23.781,13.982,47.073,22.303,70.134c4.747,13.157,10.111,26.767,19.21,37.314c-25.869-1.403-50.929-5.781-73.147-20.284
	c-48.146-31.427-54.429-93.889-69.415-144.237c-4.056-13.629-11.112-27.276-24.506-33.694c-11.724-5.618-25.306-3.854-34.533,5.539
	c-8.444,8.597-11.946,21.035-13.562,32.651c-1.959,14.083-2.216,28.629-1.83,42.824c1.59,58.447,20.74,117.867,64.867,158.089
	c47.927,43.685,112.853,59.792,175.882,65.203c72.185,6.197,145.472,4.668,217.604-1.397c35.993-3.026,71.94-7.298,107.58-13.199
	c14.686-2.431,29.688-5.821,41.714-15.089c11.917-9.184,18.903-22.722,24.951-36.172c13.924-30.966,28.282-62.041,38.252-94.558
	C1089.112,1143.999,1093.686,1110.553,1091.152,1076.645z"/>
<g>
</g>
<g>
</g>
<g>
</g>
<g>
</g>
<g>
</g>
<g>
</g>
</svg>
